<svg xmlns="http://www.w3.org/2000/svg" version="1.1" xmlns:xlink="http://www.w3.org/1999/xlink" xmlns:svgjs="http://svgjs.com/svgjs" width="512" height="512" x="0" y="0" viewBox="0 0 511.995 511.995" style="enable-background:new 0 0 512 512" xml:space="preserve"><g><path fill="#414c7f" d="M209.773 302.219c-61.677-61.678-61.677-162.034 0-223.712 24.722-24.722 56.063-40.248 90.635-44.899a15 15 0 0 0 .626-29.634c-82.436-14.66-166.939 11.88-226.052 70.995C26.629 123.32 0 187.608 0 255.989S26.629 388.658 74.981 437.01c48.353 48.352 112.64 74.981 181.021 74.981l20-89.058-20-88.639c-16.762-7.622-32.461-18.307-46.229-32.075z" data-original="#414c7f"></path><path fill="#293565" d="M508.018 210.957c-1.293-7.277-7.677-12.545-15.085-12.37a15 15 0 0 0-14.549 12.996c-4.651 34.572-20.177 65.914-44.899 90.635-47.909 47.909-119.154 58.595-177.482 32.075V511.99c68.381 0 132.668-26.629 181.021-74.981 59.114-59.113 85.653-143.619 70.994-226.052z" data-original="#293565"></path><g fill="#ffdf4f"><path d="M434.391 153.419c-8.284 0-15-6.716-15-15 0-25.754-20.953-46.708-46.708-46.708-8.284 0-15-6.716-15-15s6.716-15 15-15c25.754 0 46.708-20.953 46.708-46.707 0-8.284 6.716-15 15-15s15 6.716 15 15c0 25.754 20.953 46.707 46.707 46.707 8.284 0 15 6.716 15 15s-6.716 15-15 15c-25.754 0-46.707 20.953-46.707 46.708 0 8.284-6.716 15-15 15zM302.142 150.552h-5.068v-5.068c0-8.284-6.716-15-15-15s-15 6.716-15 15v5.068h-5.068c-8.284 0-15 6.716-15 15s6.716 15 15 15h5.068v5.068c0 8.284 6.716 15 15 15s15-6.716 15-15v-5.068h5.068c8.284 0 15-6.716 15-15 0-8.285-6.716-15-15-15zM496.995 461.403h-5.068v-5.068c0-8.284-6.716-15-15-15s-15 6.716-15 15v5.068h-5.068c-8.284 0-15 6.716-15 15s6.716 15 15 15h5.068v5.068c0 8.284 6.716 15 15 15s15-6.716 15-15v-5.068h5.068c8.284 0 15-6.716 15-15 0-8.285-6.716-15-15-15z" fill="#ffdf4f" data-original="#ffdf4f"></path></g><path fill="#fef79c" d="M240.99 277.377c0 38.275-31.139 69.415-69.415 69.415-8.284 0-15 6.716-15 15s6.716 15 15 15c38.275 0 69.415 31.139 69.415 69.414 0 8.284 6.715 14.999 14.999 15l30-99.415-30-99.415c-8.284.002-14.999 6.718-14.999 15.001z" data-original="#fef79c"></path><path fill="#ffdf4f" d="M340.405 346.792c-38.275 0-69.415-31.14-69.415-69.415 0-8.284-6.716-15-15-15h-.001v198.83h.001c8.284 0 15-6.716 15-15 0-38.275 31.14-69.414 69.415-69.414 8.284 0 15-6.716 15-15s-6.716-15.001-15-15.001z" data-original="#ffdf4f"></path></g></svg>