<svg xmlns="http://www.w3.org/2000/svg" version="1.1" xmlns:xlink="http://www.w3.org/1999/xlink" xmlns:svgjs="http://svgjs.com/svgjs" width="512" height="512" x="0" y="0" viewBox="0 0 512.149 512.149" style="enable-background:new 0 0 512 512" xml:space="preserve" class=""><g><path d="M244.383 503.034C105.484 504.744-10.065 381.274.696 242.772 8.223 101.776 142.928-5.988 282.236 17.549c68.722-29.005 150.907 20.16 158.173 93.916 6.847-3.982 34.84-32.683 43.46-31.125 9.276-1.011 18.297 13.401 24.158 18.66 9.219 9.128 1.872 26.261-11.159 25.801-5.976.249-10.768-3.907-14.361-8.231l-25.954 21.265c92.604 161.97-25.545 365.516-212.17 365.199z" style="" fill="#ffffff" data-original="#ffffff" class=""></path><path d="M474.499 258.81c0 5.896-.229 11.746-.665 17.527-.206 2.822-.482 5.62-.78 8.396-2.89 25.808-10.025 50.309-20.761 72.791-.689 1.468-1.4 2.937-2.134 4.382a222.34 222.34 0 0 1-15.439 26.29l-.023.069c-.505.711-1.009 1.445-1.514 2.156a248.295 248.295 0 0 1-9.039 12.113 231.19 231.19 0 0 1-19.821 21.702 225.06 225.06 0 0 1-33.952 27.139 218.937 218.937 0 0 1-22.229 12.916 229.65 229.65 0 0 1-25.441 10.965 225.285 225.285 0 0 1-44.574 11.218 229.253 229.253 0 0 1-17.894 1.927h-.023c-5.253.39-10.53.551-15.829.551-11.103 0-22.023-.78-32.667-2.294a227.222 227.222 0 0 1-43.174-10.507 194.377 194.377 0 0 1-10.553-3.969c-19.109-7.708-29.572-47.563-45.699-59.928-5.024-3.808-46.751-7.54-56.8-22.039a54.714 54.714 0 0 1-1.445-2.042 223.862 223.862 0 0 1-15.072-25.533 124.676 124.676 0 0 1-2.294-4.657 221.272 221.272 0 0 1-5.185-11.631c-.298-.688-.551-1.399-.826-2.088a113.645 113.645 0 0 1-1.514-3.854c-.298-.757-.573-1.514-.849-2.271-4.244-11.562-7.57-23.583-9.933-35.971-.252-1.239-.459-2.478-.688-3.739-1.399-8.006-2.363-16.105-2.936-24.363a240.476 240.476 0 0 1-.482-15.256c0-5.024.138-10.071.482-15.072a242 242 0 0 1 1.055-11.677 225.509 225.509 0 0 1 9.704-44.39 117.207 117.207 0 0 1 1.606-4.795 82.072 82.072 0 0 1 1.101-3.074c.619-1.812 1.308-3.579 1.996-5.368v-.115a224.979 224.979 0 0 1 10.69-23.124 229.104 229.104 0 0 1 26.932-39.94 279.877 279.877 0 0 1 6.79-7.777 234.562 234.562 0 0 1 19.683-19.11 171.108 171.108 0 0 1 6.423-5.299 222.745 222.745 0 0 1 16.035-11.723c.872-.596 1.743-1.17 2.638-1.743a225.843 225.843 0 0 1 22.574-12.938c.504-.253.986-.459 1.491-.711.619-.298 1.239-.596 1.881-.895a228.486 228.486 0 0 1 20.119-8.488 82.457 82.457 0 0 0 2.179-.78 229.293 229.293 0 0 1 57.053-12.25c5.735-.528 11.585-.78 17.435-.826.734-.023 1.491-.023 2.248-.023 16.334 0 32.301 1.698 47.671 4.955a228.263 228.263 0 0 1 58.613 21.014 210.942 210.942 0 0 1 16.081 9.245c13.421 8.419 25.923 18.192 37.256 29.181.551.527 1.124 1.055 1.675 1.629.872.872 1.766 1.743 2.592 2.615a228.17 228.17 0 0 1 28.332 34.938c.298.39.528.826.803 1.239 2.248 3.464 4.451 6.997 6.515 10.599a274.966 274.966 0 0 1 3.487 6.309c0 .023 0 .023.023.046 2.317 4.313 4.45 8.694 6.469 13.168 0 .023.023.023.023.046a196.6 196.6 0 0 1 3.785 8.717c.138.436.298.849.482 1.285a223.92 223.92 0 0 1 10.668 34.457 234.047 234.047 0 0 1 3.464 18.949 229.52 229.52 0 0 1 2.181 31.726z" style="" fill="#71cfe7" data-original="#71cfe7" class=""></path><g style="opacity:0.32;"><path d="M433.183 390.42a248.295 248.295 0 0 1-9.039 12.113 231.19 231.19 0 0 1-19.821 21.702 225.06 225.06 0 0 1-33.952 27.139 218.937 218.937 0 0 1-22.229 12.916 229.65 229.65 0 0 1-25.441 10.965 225.285 225.285 0 0 1-44.574 11.218l41.821-355.465v-.023l1.262-10.576 5.208-44.321 26.955-2.363 1.95 7.754 12.342 48.955 65.518 259.986z" style="" fill="#ffffff" data-original="#ffffff" class=""></path></g><g style="opacity:0.32;"><path d="m468.856 208.134-101.191-77.7-37.095-28.492 11.792-24.34 12.961 3.877 52.947 15.852a228.17 228.17 0 0 1 28.332 34.938c.298.39.528.826.803 1.239 2.248 3.464 4.451 6.997 6.515 10.599a274.966 274.966 0 0 1 3.487 6.309c0 .023 0 .023.023.046 2.317 4.313 4.45 8.694 6.469 13.168 0 .023.023.023.023.046a196.6 196.6 0 0 1 3.785 8.717c.138.436.298.849.482 1.285 4.427 11.08 8.029 22.596 10.667 34.456z" style="" fill="#ffffff" data-original="#ffffff" class=""></path></g><g style="opacity:0.32;"><path d="m324.858 123.919-4.909 7.089-215.023 310.845a215.262 215.262 0 0 1-14.567-12.09 227.09 227.09 0 0 1-34.87-39.55 54.714 54.714 0 0 1-1.445-2.042 223.862 223.862 0 0 1-15.072-25.533 124.676 124.676 0 0 1-2.294-4.657 221.272 221.272 0 0 1-5.185-11.631c-.298-.688-.551-1.399-.826-2.088a113.645 113.645 0 0 1-1.514-3.854c-.298-.757-.573-1.514-.849-2.271-4.244-11.562-7.57-23.583-9.933-35.971L262.803 134.38l42.532-29.204 14.406 13.833 1.468 1.399 3.649 3.511z" style="" fill="#ffffff" data-original="#ffffff" class=""></path></g><g style="opacity:0.32;"><path d="m321.095 103.204-1.354 15.806-.94 11.126-55.998 4.244-221.904 16.816a229.104 229.104 0 0 1 26.932-39.94 279.877 279.877 0 0 1 6.79-7.777 234.562 234.562 0 0 1 19.683-19.11 171.108 171.108 0 0 1 6.423-5.299 222.745 222.745 0 0 1 16.035-11.723c.872-.596 1.743-1.17 2.638-1.743a225.843 225.843 0 0 1 22.574-12.938c.504-.253.986-.459 1.491-.711.619-.298 1.239-.596 1.881-.895l175.749 52.144z" style="" fill="#ffffff" data-original="#ffffff" class=""></path></g><path d="M250.959 155.094H53.968c3.349-6.561 9.314-11.769 16.334-14.04 8.717-2.822 18.811-1.01 25.992 4.703 5.712-14.499 16.632-26.909 30.488-33.998 13.879-7.112 31.016-8.098 45.124-1.468 14.086 6.63 24.478 21.174 24.937 36.728 2.982-2.776 6.676-4.565 10.599-5.643 9.428-2.638 19.752-1.835 28.653 2.248 5.757 2.615 10.85 6.606 14.864 11.47zM433.023 365.366H190.44c4.125-8.08 11.47-14.492 20.114-17.289 10.735-3.475 23.165-1.243 32.007 5.791 7.034-17.854 20.481-33.137 37.544-41.866 17.091-8.758 38.194-9.972 55.567-1.808 17.346 8.164 30.143 26.075 30.708 45.228 3.672-3.418 8.221-5.622 13.051-6.95 11.611-3.249 24.323-2.26 35.284 2.768 7.092 3.222 13.364 8.137 18.308 14.126zM474.499 258.81c0 5.896-.229 11.746-.665 17.527h-98.301c3.349-6.561 9.314-11.769 16.334-14.04 2.799-.918 5.735-1.33 8.695-1.308 6.194.046 12.434 2.134 17.297 6.01 5.712-14.499 16.632-26.909 30.488-33.998a54.2 54.2 0 0 1 23.973-5.919 229.882 229.882 0 0 1 2.179 31.728z" style="" fill="#f9e0d9" data-original="#f9e0d9" class=""></path><circle cx="325.25" cy="125.277" r="101.915" style="" transform="rotate(-45.001 325.25 125.281)" fill="#f9c875" data-original="#f9c875" class=""></circle><path d="M390.605 203.569c-.069 15.623-8.282 32.025-22.918 39.779a37.76 37.76 0 0 1-6.63 2.776c-9.452 2.96-18.513 4.084-26.886 3.464-6.515-.482-12.618-1.996-18.146-4.519-8.557-3.946-15.76-10.277-21.036-18.88-2.707-4.405-4.909-9.406-6.538-14.98-3.12-10.622.459-22.23 9.268-28.951 7.754-5.919 20.004-11.952 38.953-14.338 4.29-.551 8.924-.895 13.925-1.009 4.841-.115 9.199.344 13.099 1.262 7.043 1.652 12.64 4.863 16.815 9.062 6.929 6.88 10.14 16.447 10.094 26.334z" style="" fill="#4e3354" data-original="#4e3354" class=""></path><path d="m254.105 213.565-1.504-1.948c.188-.147 19.225-14.558 43.455-6.905l-.743 2.347c-23.006-7.264-41.029 6.369-41.208 6.506zM221.874 196.87l-1.265-2.111c32.13-19.284 71.336-24.85 107.564-15.257l-.628 2.379c-35.068-9.279-74.568-3.678-105.671 14.989zM374.899 186.16a1.23 1.23 0 0 1-.779-2.183l108.974-89.273a1.226 1.226 0 0 1 1.676.11l12.992 13.831a1.23 1.23 0 0 1-.053 1.74 1.225 1.225 0 0 1-1.74-.055l-12.206-12.992-108.084 88.544a1.225 1.225 0 0 1-.78.278zM162.403 213.404a1.23 1.23 0 0 1-.956-2.006l64.546-79.635a1.232 1.232 0 0 1 2.022.157l7.544 12.993c.339.588.14 1.341-.447 1.682a1.23 1.23 0 0 1-1.685-.447l-6.645-11.448-63.423 78.247a1.225 1.225 0 0 1-.956.457z" style="" fill="#4e3354" data-original="#4e3354" class=""></path><path d="M235.917 267.046a37.64 37.64 0 0 1-3.51 1.285c-9.176 2.868-17.962 3.992-26.106 3.51-7.501-.436-14.452-2.271-20.647-5.391-8.557-4.359-15.645-11.195-20.692-20.395-4.175-7.639-6.974-16.861-8.006-27.598 0 0 7.41-18.398 38.701-26.06 7.364-1.812 16.035-3.028 26.267-3.28a63.297 63.297 0 0 1 6.355.184c6.974.619 12.778 2.523 17.504 5.391h.023c8.809 5.345 13.833 13.971 15.508 23.514 3.255 18.627-6.288 40.788-25.397 48.84z" style="" fill="#4e3354" data-original="#4e3354" class=""></path><g style="opacity:0.19;"><path d="M228.278 189.3c-16.586 24.294-30.603 50.263-42.624 77.149-8.557-4.359-15.645-11.195-20.692-20.395 1.629-3.693 3.372-7.341 5.161-10.943 5.368-10.759 11.218-21.266 17.756-31.36a262.979 262.979 0 0 1 7.777-11.356c7.364-1.812 16.035-3.028 26.267-3.28a64.19 64.19 0 0 1 6.355.185z" style="" fill="#f9e0d9" data-original="#f9e0d9" class=""></path></g><g style="opacity:0.19;"><path d="M261.312 218.205c-9.36 15.783-17.779 32.14-25.395 48.841a37.64 37.64 0 0 1-3.51 1.285c-9.176 2.868-17.962 3.992-26.106 3.51 2.386-11.103 7.135-21.816 12.227-32.048 5.368-10.736 11.218-21.266 17.779-31.36 2.982-4.588 6.125-9.199 9.475-13.742h.023c8.808 5.345 13.832 13.971 15.507 23.514z" style="" fill="#f9e0d9" data-original="#f9e0d9" class=""></path></g><g style="opacity:0.19;"><path d="M363.696 168.172c-3.602 5.414-7.685 10.507-8.924 12.227-14.728 20.417-27.529 42.142-38.747 64.67-8.557-3.946-15.76-10.277-21.036-18.88a301.876 301.876 0 0 1 13.168-22.436c8.121-12.503 17.549-25.189 28.515-35.833 4.29-.551 8.924-.895 13.925-1.009 4.841-.116 9.199.343 13.099 1.261z" style="" fill="#f9e0d9" data-original="#f9e0d9" class=""></path></g><g style="opacity:0.19;"><path d="M390.605 203.569c-8.305 12.87-15.921 26.152-22.918 39.779a37.76 37.76 0 0 1-6.63 2.776c-9.452 2.96-18.513 4.084-26.886 3.464 1.445-3.303 3.028-6.584 4.634-9.796 5.368-10.736 11.218-21.266 17.756-31.36 6.974-10.713 14.911-21.587 23.95-31.199 6.929 6.882 10.14 16.449 10.094 26.336z" style="" fill="#f9e0d9" data-original="#f9e0d9" class=""></path></g><path d="M195.61 258.03c-6.056 11.929-14.843 7.043-14.843 7.043s10.163 42.945 6.263 85.11c-3.303 35.604-14.934 105.16-18.49 125.967a194.377 194.377 0 0 1-10.553-3.969c-25.051-10.117-47.877-24.569-67.629-42.417a227.09 227.09 0 0 1-34.87-39.55c-.367-2.156-.78-4.29-1.239-6.446-8.58-40.605-27.323-89.813-7.8-107.775 19.523-17.962 21.862-19.522 35.145-37.485 13.283-17.962 18.743-27.322 35.925-32.002 0 0 2.34-6.263 24.982-11.723 8.763-2.11 18.674-2.363 27.506-1.307l1.17.138c10.438 1.376 19.178 4.542 22.367 8.488.252.298.459.619.642.941.482.849.711 1.766.642 2.684-.78 9.36-35.925 13.26-35.925 13.26s42.465 27.71 36.707 39.043z" style="" fill="#ff8d7d" data-original="#ff8d7d" class=""></path><path d="M197.272 257.052a.576.576 0 0 1-.518-.821c2.478-5.203-18.344-22.684-28.815-30.333l-.271-.198c-7.601-5.555-14.166-10.353-26.823-14.956-12.619-4.588-23.174-3.684-23.277-3.677-.326.059-.594-.205-.624-.518a.574.574 0 0 1 .518-.624c.115-.01 10.915-.935 23.775 3.741 12.811 4.658 19.435 9.5 27.107 15.107l.273.198c.328.24 32.817 24.096 29.173 31.754a.573.573 0 0 1-.518.327zM68.705 268.18a.583.583 0 0 1-.461-.229.58.58 0 0 1 .117-.805c.124-.092 12.36-9.228 19.092-15.387 6.583-6.019 24.474-15.317 33.941-12.424 2.815.855 8.841 3.874 16.474 7.697 16.036 8.032 40.276 20.169 48.026 18.07a.573.573 0 1 1 .301 1.104c-8.174 2.223-31.68-9.552-48.842-18.15-7.282-3.647-13.57-6.796-16.293-7.626-8.355-2.542-25.677 5.632-32.831 12.176-6.776 6.196-19.057 15.367-19.179 15.461a.579.579 0 0 1-.345.113z" style="" fill="#4e3354" data-original="#4e3354" class=""></path><path d="M172.207 313.946c-8.798 0-20.637-9.084-21.265-9.572a.573.573 0 0 1-.103-.804.57.57 0 0 1 .805-.103c.188.147 18.812 14.457 25.893 7.37 8.048-8.046 4.885-15.518-4.738-28.24-8.933-11.814-38.846-36.265-39.146-36.51a.575.575 0 0 1-.083-.807.571.571 0 0 1 .807-.083c.303.247 30.321 24.783 39.339 36.707 8.667 11.461 14.072 20.304 4.632 29.744-1.646 1.645-3.785 2.298-6.141 2.298z" style="" fill="#4e3354" data-original="#4e3354" class=""></path><path d="M148.609 328.3c-2.952 0-6.019-1.398-8.896-3.049-7.821-4.49-15.126-9.719-21.939-14.688-6.746-4.921-14.186-8.786-22.509-12.969a603.51 603.51 0 0 0-7.479-3.7.573.573 0 0 1 .5-1.032 598.69 598.69 0 0 1 7.493 3.704c8.371 4.208 15.855 8.096 22.67 13.07 6.787 4.951 14.065 10.159 21.838 14.62 5.623 3.232 11.436 5.196 15.782-2.272 2.673-4.589-.713-10.134-3.186-14.182l-.518-.853c-7.777-12.896-31.967-38.773-52.654-40.139-20.185-1.387-39.832 13.402-40.026 13.551a.574.574 0 1 1-.697-.913c.197-.151 20.169-15.161 40.799-13.785 21.104 1.396 45.679 27.623 53.56 40.693l.516.846c2.476 4.053 6.217 10.177 3.198 15.358-2.474 4.248-5.404 5.74-8.452 5.74zM194.188 203.041c-1.262 1.055-2.799 1.881-4.519 2.386-1.721.505-3.51.688-5.208.688-1.514 0-2.936-.138-4.198-.298-1.606-.206-3.303-.482-4.863-1.216-2.409-1.101-4.336-3.257-5.185-5.781a10.055 10.055 0 0 1-.206-5.345l1.17.138a8.764 8.764 0 0 0 .138 4.863c.734 2.202 2.432 4.106 4.565 5.093 1.4.665 3.005.918 4.52 1.101 2.546.321 5.85.573 8.947-.344 1.606-.459 3.051-1.239 4.198-2.225.251.298.457.619.641.94zM192.644 257.508c-1.116 0-2.368-.305-3.739-.915-4.376-1.951-7.988-5.586-9.909-9.976-.36-.823-.844-2.07-.873-3.399-.062-2.783 1.751-5.153 3.613-7.344l.876.743c-1.792 2.106-3.395 4.195-3.342 6.574.025 1.128.456 2.233.777 2.968 1.809 4.131 5.208 7.55 9.327 9.384 1.971.88 3.608 1.054 4.864.507.869-.374 1.554-1.08 2.281-1.827.697-.715 1.417-1.458 2.347-1.944l.532 1.018c-.768.401-1.394 1.045-2.056 1.726-.773.795-1.573 1.616-2.648 2.081a5.116 5.116 0 0 1-2.05.404zM176.033 307.599c-1.277 0-2.549-.236-3.679-.683-3.75-1.49-6.485-4.777-8.752-7.738-1.048-1.366-2.006-2.728-2.242-4.374-.371-2.59 1.178-5.3 4.474-7.837a39.946 39.946 0 0 1 7.175-4.403.577.577 0 0 1 .766.271.577.577 0 0 1-.271.766 38.697 38.697 0 0 0-6.968 4.275c-2.058 1.584-4.431 4.043-4.039 6.769.195 1.368 1.066 2.595 2.017 3.837 2.274 2.971 4.784 5.987 8.261 7.367 3.23 1.286 7.757.534 9.368-2.618a.583.583 0 0 1 .772-.25.574.574 0 0 1 .25.772c-1.354 2.65-4.256 3.846-7.132 3.846z" style="" fill="#4e3354" data-original="#4e3354" class=""></path><path d="M148.366 323.78a8.19 8.19 0 0 1-.933-.053c-3.175-.369-6.272-2.324-8.72-5.506-1.51-1.962-2.23-3.757-2.205-5.487.027-1.818.908-3.709 2.613-5.618 1.313-1.469 3.353-3.42 5.627-4.353 2.407-.992 3.819.126 5.449 1.419 3.273 2.588 5.49 6.382 6.079 10.411.227 1.559.17 2.87-.172 4.014-1.02 3.373-4.561 5.173-7.738 5.173zm-1.882-20.252c-.392 0-.814.094-1.3.293-2.072.853-3.975 2.677-5.206 4.057v.002c-1.52 1.698-2.301 3.335-2.324 4.871-.021 1.46.623 3.021 1.967 4.768 1.309 1.701 4.08 4.619 7.945 5.066 2.927.344 6.494-1.183 7.438-4.309.296-.979.339-2.129.135-3.519-.546-3.741-2.606-7.269-5.653-9.678-1.214-.962-2.019-1.551-3.002-1.551zm-6.934 3.97h.014-.014zM84.562 304.851a.575.575 0 0 1-.324-1.048 354.735 354.735 0 0 0 5.146-3.59 388.272 388.272 0 0 1 5.16-3.601.579.579 0 0 1 .798.151.575.575 0 0 1-.151.798 360.312 360.312 0 0 0-5.146 3.59 388.272 388.272 0 0 1-5.16 3.601.569.569 0 0 1-.323.099zM136.206 371.85h-.009a.57.57 0 0 1-.564-.582 179.133 179.133 0 0 0-7.012-52.876.57.57 0 0 1 .392-.708.565.565 0 0 1 .708.392 180.24 180.24 0 0 1 7.058 53.211.573.573 0 0 1-.573.563z" style="" fill="#4e3354" data-original="#4e3354" class=""></path><path d="m254.186 420.998 16.056 9.049-17.879 2.41-9.31 15.015-1.888-17.88-15.536-9.31 19.702-.586 7.487-16.838zM422.897 322.092l18.427.392-14.622 10.569-1.114 17.632-10.109-14.868-18.091-.868 17.089-9.823-1.354-18.377zM246.908 54.334l16.965 7.202-17.499 4.388-7.578 15.96-3.87-17.558-16.477-7.52 19.514-2.779 5.563-17.568zM184.308 184.259l18.426.393-14.621 10.569-1.114 17.631-10.11-14.867-18.09-.868 17.089-9.823-1.354-18.378zM67.01 207.112 84 214.256l-17.484 4.449-7.522 15.985-3.931-17.544-16.503-7.462 19.504-2.847 5.502-17.587z" style="" fill="#feefeb" data-original="#feefeb" class=""></path></g></svg>