<svg xmlns="http://www.w3.org/2000/svg" version="1.1" xmlns:xlink="http://www.w3.org/1999/xlink" xmlns:svgjs="http://svgjs.com/svgjs" width="512" height="512" x="0" y="0" viewBox="0 0 496.998 496.998" style="enable-background:new 0 0 512 512" xml:space="preserve"><g><path fill="#918291" d="M496.988 210.139c-.47 34.05-28.07 62.1-62.1 63.09-18.8.55-35.82-7.01-47.87-19.44-1.49-1.53-3.91-1.63-5.47-.17-21.22 19.91-49.77 32.11-81.17 32.11-31.66 0-60.43-12.4-81.71-32.61-15.02 12.57-34.36 20.14-55.48 20.14-49.25 0-88.9-41.14-86.43-90.94 2.18-44.01 37.73-79.67 81.74-82.01 12.85-.68 25.12 1.46 36.27 5.83l.01.01c1.74.68 3.71.03 4.69-1.55 2.08-3.34 4.31-6.58 6.7-9.69 21.69-28.28 55.82-46.51 94.21-46.51 57.36 0 105.21 40.71 116.25 94.81.43 2.08 2.43 3.49 4.53 3.1 3.83-.72 7.78-1.1 11.81-1.1 35.67 0 64.52 29.16 64.02 64.93z" data-original="#918291"></path><path fill="#7a6d79" d="M496.935 212.115c-1.432 32.745-27.905 59.401-60.64 61.06-14.108.715-27.287-3.146-38.167-10.226 17.677-11.486 29.324-31.463 29.169-54.159-.242-35.243-28.776-63.582-64.02-63.581-4.025 0-7.955.374-11.77 1.084-2.101.391-4.132-.932-4.558-3.026-8.688-42.688-40.294-77.056-81.421-89.668 11.02-3.38 22.72-5.2 34.85-5.2 57.361 0 105.214 40.708 116.258 94.804.426 2.084 2.427 3.489 4.518 3.098a64.23 64.23 0 0 1 11.814-1.093c36.314.001 65.572 30.228 63.967 66.907z" data-original="#7a6d79"></path><path fill="#b5adb6" d="M215.958 323.279a65.235 65.235 0 0 1-4.59-3.07c-1.94-1.42-4.57-1.34-6.39.23-15.55 13.45-35.8 21.59-57.97 21.59-22.78 0-43.55-8.59-59.26-22.7-1.98-1.77-4.98-1.63-6.91.2-8.58 8.16-20.19 13.18-32.97 13.18-27.52 0-49.61-23.22-47.76-51.14 1.54-23.32 20.12-42.32 43.4-44.41a47.8 47.8 0 0 1 11.31.31c2.61.38 5.1-1.27 5.68-3.84 6.434-28.387 26.462-51.602 52.88-62.44l33.625-1.009s132.615 61.628 132.615 94.949c0 50.618-63.66 58.15-63.66 58.15z" data-original="#b5adb6"></path><path fill="#a79ba7" d="M314.291 268.975c-.506 34.309-28.235 62.572-62.529 63.698-13.139.431-25.43-3.064-35.804-9.394 19.187-11.695 31.811-33.117 31.025-57.426-1.088-33.637-28.307-61.11-61.933-62.498-8.767-.362-17.156 1.027-24.865 3.838-2.21.806-4.665-.077-5.944-2.051-9.786-15.108-24.023-27.047-40.863-33.954 10.37-4.27 21.73-6.61 33.63-6.61 27.343 0 51.908 12.534 68.18 31.98 0 0 1.731 7.548 3.707 10.599 1.301 2.009 6.42.811 8.67-.005a64.452 64.452 0 0 1 22.023-3.854c36.065.001 65.237 29.5 64.703 65.677z" data-original="#a79ba7"></path><path fill="#e2dee2" d="M359.461 344.189c-21.907-1.094-41.03 11.32-49.802 29.638-1.383 2.888-4.797 4.237-7.722 2.935-4.886-2.175-10.389-3.211-16.176-2.768-16.361 1.254-29.55 14.552-30.676 30.922-1.342 19.506 14.084 35.747 33.303 35.747a33.248 33.248 0 0 0 22.379-8.619c2.379-2.152 6.048-1.9 8.265.418 9.51 9.942 22.907 16.135 37.752 16.135 29.541 0 53.355-24.521 52.197-54.32-1.043-26.819-22.714-48.749-49.52-50.088z" data-original="#e2dee2"></path><path fill="#cbc4cc" d="M409.018 396.359c0 28.85-23.39 52.24-52.24 52.24-9.86 0-19.08-2.74-26.95-7.49 15.15-9.15 25.27-25.77 25.27-44.75s-10.12-35.6-25.27-44.75c7.86-4.75 17.08-7.49 26.95-7.49 28.85 0 52.24 23.39 52.24 52.24z" data-original="#cbc4cc"></path><circle cx="471.764" cy="409.427" r="25.234" fill="#e2dee2" data-original="#e2dee2"></circle><path fill="#cbc4cc" d="M496.998 409.429c0 13.93-11.3 25.23-25.23 25.23-4.6 0-8.91-1.23-12.62-3.38 7.55-4.36 12.62-12.52 12.62-21.85 0-9.34-5.07-17.5-12.62-21.85 3.71-2.16 8.02-3.39 12.62-3.39 13.93 0 25.23 11.3 25.23 25.24z" data-original="#cbc4cc"></path><path fill="#7a6d79" d="M239.968 136.809a7.483 7.483 0 0 1-10.41-2.02c-8.62-12.76-20.65-22.66-34.78-28.64 1.74.68 3.71.03 4.69-1.55 2.08-3.34 4.31-6.58 6.7-9.69 14.42 7.22 26.72 18.02 35.82 31.49a7.49 7.49 0 0 1-2.02 10.41z" data-original="#7a6d79"></path><path fill="#918291" d="m213.838 207.065 2.96 6.245c-5.4 3.9-10.11 8.75-13.89 14.35a7.487 7.487 0 0 1-6.22 3.3c-1.45 0-2.91-.41-4.2-1.28-3.43-2.32-4.33-6.98-2.01-10.42 3.23-4.79 7-9.14 11.22-12.99z" data-original="#918291"></path><path fill="#7a6d79" d="M227.458 207.199c-3.78 1.66-7.35 3.7-10.66 6.11a64.81 64.81 0 0 0-15.1-7.04c4.09-3.74 8.63-7 13.49-9.71 2.28 2.73 4.39 5.6 6.33 8.59 1.28 1.97 3.73 2.85 5.94 2.05z" data-original="#7a6d79"></path></g></svg>