<svg xmlns="http://www.w3.org/2000/svg" version="1.1" xmlns:xlink="http://www.w3.org/1999/xlink" xmlns:svgjs="http://svgjs.com/svgjs" width="512" height="512" x="0" y="0" viewBox="0 0 497 497" style="enable-background:new 0 0 512 512" xml:space="preserve"><g><circle cx="330.45" cy="172.035" r="132.136" fill="#e2dee2" transform="rotate(-45 330.443 172.109)" data-original="#e2dee2"></circle><path fill="#cbc4cc" d="M387.958 53.04c27.367 24.209 44.627 59.584 44.627 98.996 0 72.976-59.159 132.136-132.136 132.136-20.613 0-40.122-4.722-57.509-13.14 23.307 20.618 53.943 33.14 87.509 33.14 72.977 0 132.136-59.159 132.136-132.136.001-52.365-30.46-97.612-74.627-118.996z" data-original="#cbc4cc"></path><path fill="#7a6d79" d="m26.887 220.478.242-.018c2.605-.18 4.638-2.319 4.574-4.929a37.555 37.555 0 0 1-.012-.95c0-21.223 17.205-38.428 38.428-38.428a38.24 38.24 0 0 1 20.482 5.909c2.159 1.363 4.991.732 6.525-1.308 5.322-7.083 13.79-11.667 23.332-11.667 2.314 0 4.564.272 6.722.784 2.324.551 4.684-.747 5.549-2.973 7.352-18.905 25.715-32.309 47.219-32.309 27.98 0 50.662 22.682 50.662 50.662 0 1.04-.033 2.072-.097 3.096-.144 2.315 1.401 4.382 3.648 4.958 18.76 4.809 32.621 21.841 32.591 42.108-.036 24.072-20.109 43.336-44.182 43.336H29.18c-16.634 0-30.017-13.918-29.139-30.744.756-14.496 12.374-26.41 26.846-27.527z" data-original="#7a6d79"></path><path fill="#685e68" d="M175.633 258.749H1.721c-.081 0-.161-.006-.242-.006 3.846 11.62 14.79 20.006 27.7 20.006h146.453v-20z" data-original="#685e68"></path><path fill="#918291" d="M444.548 234.284c-12.144-.803-23.523 2.26-33.046 8.068-2.723 1.661-6.291.335-7.143-2.739-4.52-16.305-19.463-28.276-37.208-28.276-3.578 0-7.043.487-10.331 1.398-2.551.707-5.168-.83-5.859-3.386-6.468-23.938-28.323-41.554-54.306-41.554-31.075 0-56.267 25.191-56.267 56.266 0 2.237.135 4.442.393 6.61.342 2.872-1.947 5.326-4.84 5.322h-.06c-23.182 0-41.974 18.792-41.974 41.974 0 .273.003.546.009.818.049 2.339-1.614 4.31-3.908 4.765-14.669 2.905-25.719 15.87-25.649 31.409.079 17.66 14.894 31.732 32.554 31.732h243.821c31.337 0 56.691-25.618 56.261-57.054-.399-29.117-23.392-53.433-52.447-55.353z" data-original="#918291"></path><path fill="#7a6d79" d="M455.277 236.066C462.62 245.572 467 257.483 467 270.424c0 31.075-25.191 56.266-56.267 56.266h-244.08c4.711 11.721 16.176 20 29.582 20h244.497c31.075 0 56.267-25.191 56.267-56.266.001-26.044-17.698-47.946-41.722-54.358z" data-original="#7a6d79"></path><path fill="#b5adb6" d="m374.721 369.817-.358-.02a6.34 6.34 0 0 1-6.051-6.586c.027-.718.041-1.44.041-2.165 0-31.77-25.754-57.524-57.524-57.524-11.561 0-22.325 3.411-31.341 9.282-2.834 1.845-6.583 1.066-8.559-1.677-7.929-11.01-20.851-18.182-35.454-18.182-3.673 0-7.238.458-10.645 1.315-3.14.79-6.33-.915-7.476-3.943-10.835-28.641-38.496-49.013-70.933-49.013-41.884 0-75.837 33.954-75.837 75.837 0 1.784.065 3.553.19 5.305a6.3 6.3 0 0 1-4.799 6.575c-28.591 6.987-49.763 32.891-49.491 63.698.316 35.803 30.081 64.383 65.885 64.383h289.744c24.066 0 43.587-19.463 43.68-43.508.088-23.015-18.098-42.434-41.072-43.777z" data-original="#b5adb6"></path><path fill="#a79ba7" d="M379.178 370.318a43.462 43.462 0 0 1 6.614 23.103c0 24.124-19.556 43.68-43.68 43.68H51.45a64.94 64.94 0 0 1-19.587-3.011c11.918 14.07 29.704 23.011 49.587 23.011h290.662c24.124 0 43.68-19.556 43.68-43.68.001-21.717-15.851-39.725-36.614-43.103z" data-original="#a79ba7"></path><g fill="#cbc4cc"><circle cx="352.558" cy="116.722" r="22.301" fill="#cbc4cc" data-original="#cbc4cc"></circle><circle cx="271.718" cy="133.448" r="11.731" fill="#cbc4cc" data-original="#cbc4cc"></circle><circle cx="406.452" cy="184.554" r="11.731" transform="rotate(-81.43 406.365 184.522)" fill="#cbc4cc" data-original="#cbc4cc"></circle></g></g></svg>