<svg xmlns="http://www.w3.org/2000/svg" version="1.1" xmlns:xlink="http://www.w3.org/1999/xlink" xmlns:svgjs="http://svgjs.com/svgjs" width="512" height="512" x="0" y="0" viewBox="0 0 682.667 682.667" style="enable-background:new 0 0 512 512" xml:space="preserve"><g><defs><clipPath id="a" clipPathUnits="userSpaceOnUse"><path d="M0 512h512V0H0Z" fill="#000000" data-original="#000000"></path></clipPath></defs><g clip-path="url(#a)" transform="matrix(1.33333 0 0 -1.33333 0 682.667)"><path d="m0 0 317.09 14.024c48.111 44.735 78.221 108.57 78.221 179.448 0 135.31-109.691 245-245 245-135.31 0-245-109.69-245-245C-94.689 114.817-57.617 44.828 0 0Z" style="fill-opacity:1;fill-rule:nonzero;stroke:none" transform="translate(105.69 51.528)" fill="#41416b" data-original="#41416b"></path><path d="M0 0c0-110.457-89.543-200-200-200S-400-110.457-400 0s89.543 200 200 200S0 110.457 0 0" style="fill-opacity:1;fill-rule:nonzero;stroke:none" transform="translate(456 260)" fill="#313159" data-original="#313159"></path><path d="M0 0c-1.277 0-2.521-.144-3.718-.41A26.997 26.997 0 0 1-1.659 9.955c0 14.95-12.119 27.07-27.07 27.07-2.447 0-4.816-.33-7.07-.938-2.261 19.382-18.733 34.424-38.722 34.424-19.988 0-36.46-15.042-38.72-34.424a27.114 27.114 0 0 1-7.07.938c-14.951 0-27.071-12.12-27.071-27.07 0-3.672.735-7.172 2.06-10.365-1.199.266-2.442.41-3.719.41-9.453 0-17.116-7.663-17.116-17.116s7.663-17.116 17.116-17.116H0c9.453 0 17.116 7.663 17.116 17.116S9.453 0 0 0" style="fill-opacity:1;fill-rule:nonzero;stroke:none" transform="translate(446.543 181.134)" fill="#515181" data-original="#515181"></path><path d="M0 0c-3.595 30.826-29.793 54.75-61.584 54.75-31.791 0-57.989-23.924-61.584-54.75a43.073 43.073 0 0 1-11.244 1.493c-23.778 0-43.054-19.276-43.054-43.055a42.908 42.908 0 0 1 3.275-16.483 27.305 27.305 0 0 1-5.913.651c-10.064 0-18.845-5.464-23.556-13.583 23.229-18.074 49.797-32.053 78.626-40.861z" style="fill-opacity:1;fill-rule:nonzero;stroke:none" transform="translate(309.35 122.505)" fill="#515181" data-original="#515181"></path><path d="M0 0c-2.354 0-4.645-.266-6.852-.755a49.697 49.697 0 0 1 3.795 19.098c0 27.551-22.334 49.884-49.883 49.884-4.509 0-8.873-.608-13.028-1.729-4.165 35.715-34.519 63.435-71.352 63.435-36.834 0-67.188-27.72-71.353-63.435a49.928 49.928 0 0 1-13.027 1.729c-27.551 0-49.885-22.333-49.885-49.884A49.735 49.735 0 0 1-267.79-.755a31.635 31.635 0 0 1-6.852.755c-17.42 0-31.541-14.122-31.541-31.541s14.121-31.54 31.541-31.54H0c17.42 0 31.541 14.121 31.541 31.54C31.541-14.122 17.42 0 0 0" style="fill-opacity:1;fill-rule:nonzero;stroke:none" transform="translate(480.459 277.067)" fill="#616196" data-original="#616196"></path><path d="M0 0c0 .977.04 1.944.1 2.906L0 2.904c-39.68 0-71.846 32.167-71.846 71.846 0 2.845.171 5.651.493 8.41a49.928 49.928 0 0 1-13.027 1.729c-27.551 0-49.885-22.333-49.885-49.884a49.738 49.738 0 0 1 3.795-19.098 31.633 31.633 0 0 1-6.851.755c-17.42 0-31.541-14.121-31.541-31.54 0-17.42 14.121-31.541 31.541-31.541h183.74C20.782-46.419 0-25.637 0 0" style="fill-opacity:1;fill-rule:nonzero;stroke:none" transform="translate(343.139 260.405)" fill="#515181" data-original="#515181"></path><path d="M0 0c0-82.843-67.157-150-150-150S-300-82.843-300 0s67.157 150 150 150S0 82.843 0 0" style="fill-opacity:1;fill-rule:nonzero;stroke:none" transform="translate(300 362)" fill="#fff9e1" data-original="#fff9e1"></path><path d="M0 0c0 70.82 49.083 130.168 115.084 145.905A150.345 150.345 0 0 1 80.169 150c-82.843 0-150-67.157-150-150s67.157-150 150-150c12.022 0 23.711 1.423 34.915 4.095C49.083-130.168 0-70.82 0 0" style="fill-opacity:1;fill-rule:nonzero;stroke:none" transform="translate(69.831 362)" fill="#fff2b9" data-original="#fff2b9"></path><path d="M0 0c0-16.568-13.432-30-30-30-16.568 0-30 13.432-30 30 0 16.568 13.432 30 30 30C-13.432 30 0 16.568 0 0" style="fill-opacity:1;fill-rule:nonzero;stroke:none" transform="translate(273.146 347)" fill="#fff2b9" data-original="#fff2b9"></path><path d="M0 0c-8.271 0-15 6.729-15 15s6.729 15 15 15 15-6.729 15-15S8.271 0 0 0" style="fill-opacity:1;fill-rule:nonzero;stroke:none" transform="translate(243.145 332)" fill="#fee886" data-original="#fee886"></path><path d="M0 0c0-13.807-11.192-25-25-25-13.807 0-25 11.193-25 25s11.193 25 25 25C-11.192 25 0 13.807 0 0" style="fill-opacity:1;fill-rule:nonzero;stroke:none" transform="translate(106.528 421.284)" fill="#fff2b9" data-original="#fff2b9"></path><path d="M0 0c-5.515 0-10 4.486-10 10s4.485 10 10 10c5.514 0 10-4.486 10-10S5.514 0 0 0" style="fill-opacity:1;fill-rule:nonzero;stroke:none" transform="translate(81.53 411.284)" fill="#fee886" data-original="#fee886"></path><path d="M0 0c0-13.807-11.192-25-25-25-13.807 0-25 11.193-25 25s11.193 25 25 25C-11.192 25 0 13.807 0 0" style="fill-opacity:1;fill-rule:nonzero;stroke:none" transform="translate(235.065 449.685)" fill="#fff2b9" data-original="#fff2b9"></path><path d="M0 0c-5.514 0-10 4.486-10 10s4.486 10 10 10c5.515 0 10-4.486 10-10S5.515 0 0 0" style="fill-opacity:1;fill-rule:nonzero;stroke:none" transform="translate(210.065 439.685)" fill="#fee886" data-original="#fee886"></path><path d="M0 0c0-7.855-6.368-14.224-14.224-14.224-7.855 0-14.223 6.369-14.223 14.224s6.368 14.224 14.223 14.224C-6.368 14.224 0 7.855 0 0" style="fill-opacity:1;fill-rule:nonzero;stroke:none" transform="translate(178.447 370.315)" fill="#fff2b9" data-original="#fff2b9"></path><path d="M0 0c0-7.856-6.368-14.224-14.224-14.224-7.855 0-14.223 6.368-14.223 14.224 0 7.855 6.368 14.224 14.223 14.224C-6.368 14.224 0 7.855 0 0" style="fill-opacity:1;fill-rule:nonzero;stroke:none" transform="translate(54.24 375.553)" fill="#fff9e1" data-original="#fff9e1"></path><path d="M0 0a36.836 36.836 0 0 1-21.644-6.996c-.285 21.955-14.635 40.508-34.459 47.069a79.785 79.785 0 0 1 10.768 40.118c0 44.289-35.902 80.192-80.191 80.192-41.574 0-75.754-31.637-79.789-72.148a82.5 82.5 0 0 1-19.786 2.409c-45.472 0-82.336-36.863-82.336-82.336 0-3.997.301-7.923.851-11.768A36.864 36.864 0 0 1-322.213 0c-20.442 0-37.014-16.572-37.014-37.014 0-20.442 16.572-37.013 37.014-37.013H0c20.441 0 37.014 16.571 37.014 37.013C37.014-16.572 20.441 0 0 0" style="fill-opacity:1;fill-rule:nonzero;stroke:none" transform="translate(359.227 194.044)" fill="#7070ab" data-original="#7070ab"></path><path d="M0 0a61.38 61.38 0 0 0 3.133 19.376c-28.118 12.461-47.744 40.596-47.744 73.332 0 2.715.138 5.397.402 8.043a82.498 82.498 0 0 1-19.785 2.41c-45.473 0-82.336-36.863-82.336-82.336 0-3.997.301-7.924.851-11.769a36.871 36.871 0 0 1-15.627 3.461c-20.443 0-37.014-16.572-37.014-37.014 0-20.442 16.571-37.014 37.014-37.014H61.511C27.539-61.511 0-33.972 0 0" style="fill-opacity:1;fill-rule:nonzero;stroke:none" transform="translate(198.12 181.528)" fill="#616196" data-original="#616196"></path><path d="M0 0c.148 1.907.236 3.831.236 5.776C.236 47.515-33.6 81.35-75.338 81.35c-34.571 0-63.699-23.222-72.691-54.912a69.319 69.319 0 0 1-22.798 3.849c-38.355 0-69.446-31.093-69.446-69.447 0-5.411.638-10.67 1.809-15.725 22.675-6.928 46.742-10.667 71.685-10.667C-102.348-65.552-43.736-40.667 0 0" style="fill-opacity:1;fill-rule:nonzero;stroke:none" transform="translate(422.78 65.552)" fill="#8080c1" data-original="#8080c1"></path><path d="M0 0c0 7.167 1.02 14.092 2.883 20.662a69.293 69.293 0 0 1-22.798 3.849c-38.355 0-69.446-31.093-69.446-69.447 0-5.411.638-10.67 1.809-15.725 22.675-6.928 46.742-10.667 71.685-10.667 18.424 0 36.367 2.049 53.629 5.904C15.193-52.352 0-27.958 0 0" style="fill-opacity:1;fill-rule:nonzero;stroke:none" transform="translate(271.867 71.328)" fill="#7070ab" data-original="#7070ab"></path></g></g></svg>