<svg xmlns="http://www.w3.org/2000/svg" version="1.1" xmlns:xlink="http://www.w3.org/1999/xlink" xmlns:svgjs="http://svgjs.com/svgjs" width="512" height="512" x="0" y="0" viewBox="0 0 512 512" style="enable-background:new 0 0 512 512" xml:space="preserve"><g><path fill="#303a59" d="M512 256c0 141.387-114.613 256-256 256S0 397.387 0 256 114.613 0 256 0s256 114.613 256 256zm0 0" data-original="#303a59"></path><path fill="#ebf0f3" d="M367 345H223.344c-8.285 0-15 6.719-15 15 0 8.285-6.719 15-15 15h-81c-8.285 0-15 6.719-15 15 0 8.285-6.719 15-15 15H47.82a257.341 257.341 0 0 0 60.32 60H346c8.285 0 15-6.715 15-15 0-8.281-6.715-15-15-15h-54c-8.285 0-15-6.715-15-15 0-8.281 6.715-15 15-15h24c8.285 0 15-6.715 15-15 0-8.281 6.715-15 15-15h21c8.285 0 15-6.715 15-15 0-8.281-6.719-15-15-15zm0 0" data-original="#ebf0f3"></path><path fill="#ffe854" d="M512 180c0 99.414-80.59 180.004-180 180.004-99.414 0-180.004-80.59-180.004-180.004 0-99.41 80.59-180 180.004-180 99.41 0 180 80.59 180 180zm0 0" data-original="#ffe854"></path><g fill="#ffcf11"><path d="M211.996 180c0-89.188 64.871-163.215 150.004-177.496A180.805 180.805 0 0 0 332 0c-99.414 0-180.004 80.59-180.004 180 0 99.414 80.59 180.004 180.004 180.004 10.223 0 20.242-.867 30-2.504-85.129-14.285-150.004-88.312-150.004-177.5zm0 0" fill="#ffcf11" data-original="#ffcf11"></path><path d="M316.008 121c0 33.14-26.867 60.008-60.008 60.008S195.992 154.14 195.992 121 222.86 60.992 256 60.992 316.008 87.86 316.008 121zM438.969 87.27c0 18.628-15.106 33.73-33.735 33.73s-33.73-15.102-33.73-33.73c0-18.63 15.101-33.735 33.73-33.735S438.97 68.641 438.97 87.27zM497.281 251.379c-12.406-23.676-37.199-39.84-65.781-39.84-40.996 0-74.23 33.234-74.23 74.23 0 26.965 14.378 50.57 35.882 63.57 46.754-16.89 84.508-52.589 104.13-97.96zm0 0" fill="#ffcf11" data-original="#ffcf11"></path></g><path fill="#ffffff" d="M258.5 256c0-8.285 6.715-15 15-15h3.5c8.281 0 15-6.715 15-15s-6.719-15-15-15H76c-8.285 0-15 6.715-15 15s-6.719 15-15 15h-3.5c-8.285 0-15 6.715-15 15s6.715 15 15 15h47c8.281 0 15 6.715 15 15s6.715 15 15 15h201c8.281 0 15-6.715 15-15s-6.719-15-15-15h-47c-8.285 0-15-6.715-15-15zm0 0" data-original="#ffffff"></path></g></svg>