<svg xmlns="http://www.w3.org/2000/svg" version="1.1" xmlns:xlink="http://www.w3.org/1999/xlink" xmlns:svgjs="http://svgjs.com/svgjs" width="512" height="512" x="0" y="0" viewBox="0 0 512 512" style="enable-background:new 0 0 512 512" xml:space="preserve"><g><path fill="#393991" d="M501.535 257.195c0-135.5-109.754-245.347-245.14-245.347S11.258 121.695 11.258 257.195c0 135.504 109.75 245.352 245.137 245.352s245.14-109.848 245.14-245.352zm0 0" data-original="#393991"></path><path fill="#fdd33a" d="M507.93 156.21c-.016.009-.032.013-.043.02-39.297 18.778-86.305 2.48-105.625-36.382-19.367-38.957-3.657-86.668 35.101-106.418a80.069 80.069 0 0 1 16.004-6.106c1.29-.34 1.336-2.152.063-2.554-20.438-6.442-43.028-6.59-64.746.972-53.825 18.742-82.473 79.055-62.95 132.61.43 1.183.887 2.351 1.36 3.511a71.425 71.425 0 0 1 15.726-1.77c34.203-.03 62.778 24.11 69.618 56.305a15.054 15.054 0 0 0 6.765 9.684c12.848.422 25.985-1.562 38.797-6.258 22.21-8.14 39.926-23.133 51.64-41.707.72-1.133-.5-2.484-1.71-1.906zm0 0" data-original="#fdd33a"></path><path fill="#e8bb2a" d="M432.367 183.34c-7.879-31.332-33.922-55.414-66.265-60.403-.407-1.019-.809-2.046-1.188-3.085-15.695-43.063-.246-90.489 34.39-117.165-.003 0-.003.004-.003.004a105.28 105.28 0 0 0-4.305 1.098c-.473.133-.941.258-1.414.399-.504.144-1.012.3-1.516.457-1.129.347-2.257.707-3.382 1.097-.813.285-1.622.578-2.426.883-.266.098-.528.207-.793.309-.535.207-1.067.41-1.598.625-.312.129-.62.261-.933.39-.477.2-.95.399-1.422.602-.328.144-.657.293-.985.441-.445.2-.89.399-1.336.606-.332.156-.664.316-1 .476-.43.203-.859.41-1.285.625-.336.164-.668.336-1 .504-.418.215-.832.426-1.246.645-.336.175-.668.355-1 .535-.406.222-.808.445-1.21.672a80.691 80.691 0 0 0-2.177 1.254c-.324.191-.648.386-.972.582-.39.238-.781.48-1.168.722-.317.2-.637.399-.953.602-.383.25-.766.5-1.149.754-.308.207-.62.41-.93.617a73.5 73.5 0 0 0-1.132.789c-.305.21-.606.418-.907.633-.382.27-.757.55-1.136.828-.285.21-.574.418-.86.633-.394.297-.78.597-1.171.898-.262.203-.528.403-.79.61a184.586 184.586 0 0 0-2.128 1.734c-.543.453-1.086.914-1.622 1.383-.265.23-.523.465-.785.699-.347.309-.699.617-1.043.93-.285.261-.566.527-.847.793-.313.293-.625.582-.934.879-.289.277-.574.558-.86.84-.292.288-.59.574-.882.867-.29.293-.574.586-.86.878-.277.29-.558.579-.832.868-.289.304-.574.609-.859.918-.266.285-.527.574-.789.863-.285.312-.566.629-.848.95-.257.288-.511.577-.761.866-.282.325-.559.653-.836.98-.242.29-.485.579-.723.868-.277.34-.555.676-.828 1.016l-.68.863c-.277.351-.55.7-.82 1.055-.215.28-.43.566-.645.851-.27.363-.543.727-.812 1.098-.2.273-.395.547-.59.82-.273.387-.55.77-.82 1.16-.176.254-.348.508-.52.766-.281.414-.566.824-.84 1.242-.14.215-.277.43-.418.649-.3.46-.601.925-.898 1.39l-.117.195c-1.16 1.86-2.262 3.75-3.301 5.676-.043.074-.082.149-.125.223-.285.535-.562 1.07-.84 1.61-.09.175-.183.35-.273.527a78.403 78.403 0 0 0-.754 1.52c-.106.21-.207.421-.313.632-.238.5-.468 1-.699 1.5-.105.227-.21.45-.312.676-.223.496-.442.996-.66 1.496-.102.234-.204.465-.301.695-.215.504-.422 1.012-.63 1.516-.093.23-.187.46-.277.691a74.103 74.103 0 0 0-.601 1.543l-.258.68c-.195.523-.387 1.05-.574 1.582-.074.21-.149.426-.227.64-.187.547-.375 1.094-.554 1.641l-.188.582c-.183.57-.367 1.145-.539 1.719l-.148.492c-.18.606-.36 1.215-.528 1.828-.031.106-.058.211-.09.32a104.174 104.174 0 0 0-3.054 15.766c-.004.043-.012.086-.016.129-.078.703-.148 1.406-.215 2.11-.008.097-.02.195-.027.288-.059.676-.113 1.352-.16 2.028-.008.125-.016.254-.028.379a113.41 113.41 0 0 0-.109 1.992c-.004.137-.012.273-.02.41-.027.66-.046 1.316-.062 1.98-.004.141-.008.282-.008.422-.012.66-.02 1.325-.02 1.989 0 .133 0 .27.005.406 0 .672.011 1.344.027 2.02l.012.351a91.814 91.814 0 0 0 .09 2.328c.035.735.082 1.469.132 2.203.004.016.004.028.004.043a100.997 100.997 0 0 0 3.305 19.266 103.432 103.432 0 0 0 .75 2.617l.035.113c0 .008.004.016.008.028.234.777.48 1.55.738 2.328.04.117.074.234.113.351a97.403 97.403 0 0 0 2.273 6.133 71.19 71.19 0 0 1 15.727-1.77c34.204-.03 62.778 24.11 69.618 56.305a15.054 15.054 0 0 0 6.765 9.684h.004c.102 0 .2 0 .3.004.68.02 1.364.035 2.048.043h.097c.543.008 1.09 0 1.633-.004.211 0 .422.004.633 0 .063 0 .125 0 .191-.004.637-.008 1.274-.027 1.91-.047.094-.004.184-.004.278-.008l.285-.011a83.97 83.97 0 0 0 1.715-.086c.133-.004.266-.012.398-.02a5.79 5.79 0 0 0 .368-.023c.675-.043 1.355-.09 2.035-.149.152-.011.304-.027.457-.039.62-.054 1.242-.117 1.863-.183.031-.004.066-.004.098-.008.18-.02.363-.04.543-.063.629-.07 1.254-.144 1.882-.226.208-.032.418-.059.625-.09a96.382 96.382 0 0 0 1.813-.262l.703-.117a89.358 89.358 0 0 0 2.524-.445c.554-.106 1.105-.211 1.66-.325l.863-.187c.531-.113 1.059-.23 1.59-.352.312-.074.625-.152.937-.226a95.34 95.34 0 0 0 1.516-.375c.344-.09.691-.184 1.035-.278.473-.128.945-.253 1.418-.386.383-.11.77-.227 1.152-.34.434-.129.872-.258 1.305-.39.434-.137.867-.282 1.297-.423.387-.125.777-.246 1.164-.379.805-.269 1.61-.554 2.41-.847.004 0 .008-.004.012-.004a106.504 106.504 0 0 0 3.938-1.535c.5-.207.988-.43 1.48-.645.77-.332 1.539-.66 2.297-1.008.62-.289 1.238-.59 1.855-.89.598-.29 1.196-.578 1.785-.88.7-.35 1.387-.718 2.07-1.089.485-.258.966-.516 1.442-.781.75-.422 1.492-.852 2.23-1.29.383-.222.762-.448 1.137-.679.801-.488 1.594-.984 2.38-1.492a115.166 115.166 0 0 0 3.363-2.27c.167-.117.332-.238.496-.355a99.656 99.656 0 0 0 2.722-2.004c-17.883 4.2-36.027 3.418-52.789-1.578zm0 0" data-original="#e8bb2a"></path><path fill="#aef7ff" d="M495.074 201.059c-14.355.023-38.996.058-54.539.046a16.02 16.02 0 0 1-3.11-.316c-6.277-1.246-11.3-6.18-12.679-12.652-7.453-35.082-38.59-61.383-75.86-61.352a77.226 77.226 0 0 0-27.109 4.91c-3.68 1.383-7.843.157-10.214-2.98C288.62 98.387 252.245 78.8 211.308 78.84c-65.567.058-119.313 50.426-124.899 114.59-.379 4.355-3.71 7.925-8.062 8.382C34.285 206.446-.04 243.743 0 289.063c.043 48.426 39.3 87.645 87.688 87.602l347.62-.27 35.403-.027c19.598-35.222 30.785-75.777 30.824-118.949.016-19.395-2.222-38.262-6.46-56.36zm0 0" data-original="#aef7ff"></path><g fill="#5dc1d8"><path d="M64.25 293.004c-.04-40.844 29.254-74.844 67.969-82.086 7.984-1.492 13.93-8.11 15.12-16.145 8.552-57.593 58.102-101.812 118.036-101.863 1.309-.004 2.613.02 3.91.063-17.348-9.04-37.066-14.153-57.976-14.133-65.586.058-119.344 50.457-124.907 114.644-.375 4.336-3.726 7.871-8.054 8.328C34.285 206.445-.04 243.742 0 289.063c.043 48.426 39.3 87.645 87.684 87.602l60.027-.277c-46.055.039-83.422-37.29-83.461-83.383zM126.121 512a7.509 7.509 0 0 1-6.934-10.383l41.04-99.094c1.585-3.832 5.98-5.648 9.808-4.066a7.504 7.504 0 0 1 4.063 9.809l-41.04 99.097a7.507 7.507 0 0 1-6.937 4.637zM199.191 512a7.509 7.509 0 0 1-6.934-10.383l41.04-99.094a7.509 7.509 0 0 1 13.875 5.742l-41.043 99.098A7.503 7.503 0 0 1 199.19 512zM272.262 512c-.957 0-1.93-.184-2.867-.574a7.507 7.507 0 0 1-4.067-9.809l41.04-99.094a7.513 7.513 0 0 1 9.808-4.066 7.509 7.509 0 0 1 4.066 9.809l-41.039 99.097a7.513 7.513 0 0 1-6.941 4.637zM345.336 512c-.961 0-1.934-.184-2.871-.574a7.507 7.507 0 0 1-4.067-9.809l41.043-99.094a7.51 7.51 0 0 1 9.809-4.066 7.51 7.51 0 0 1 4.063 9.809l-41.04 99.097a7.511 7.511 0 0 1-6.937 4.637zm0 0" fill="#5dc1d8" data-original="#5dc1d8"></path></g><path fill="#399faa" d="M174.102 408.266c1.585-3.829-.235-8.22-4.067-9.809a7.513 7.513 0 0 0-9.808 4.066l-17.356 41.91h16.25zM247.172 408.266c1.586-3.829-.234-8.22-4.063-9.809a7.51 7.51 0 0 0-9.808 4.066l-17.36 41.91h16.25zM320.242 408.266a7.508 7.508 0 0 0-4.062-9.809 7.51 7.51 0 0 0-9.809 4.066l-17.36 41.91h16.255zM393.313 408.266a7.508 7.508 0 0 0-4.063-9.809 7.51 7.51 0 0 0-9.809 4.066l-17.355 41.91h16.25zm0 0" data-original="#399faa"></path></g></svg>