<svg xmlns="http://www.w3.org/2000/svg" version="1.1" xmlns:xlink="http://www.w3.org/1999/xlink" xmlns:svgjs="http://svgjs.com/svgjs" width="512" height="512" x="0" y="0" viewBox="0 0 512 512.001" style="enable-background:new 0 0 512 512" xml:space="preserve" class=""><g><radialGradient id="g" cx="215.844" cy="185.727" r="336.69" gradientUnits="userSpaceOnUse"><stop offset="0" stop-color="#3b395f"></stop><stop offset=".395" stop-color="#39375d"></stop><stop offset=".628" stop-color="#323154"></stop><stop offset=".818" stop-color="#262846"></stop><stop offset=".985" stop-color="#151a32"></stop><stop offset="1" stop-color="#131830"></stop></radialGradient><linearGradient id="a"><stop offset="0" stop-color="#131830" stop-opacity="0"></stop><stop offset=".842" stop-color="#131830"></stop></linearGradient><linearGradient xlink:href="#a" id="h" x1="535.739" x2="143.206" y1="399.445" y2="198.66" gradientUnits="userSpaceOnUse"></linearGradient><linearGradient xlink:href="#a" id="i" x1="258.582" x2="159.52" y1="521.132" y2="422.069" gradientUnits="userSpaceOnUse"></linearGradient><radialGradient id="j" cx="352.54" cy="73.67" r="194.388" gradientUnits="userSpaceOnUse"><stop offset="0" stop-color="#ffebc9"></stop><stop offset=".277" stop-color="#ffe9c5"></stop><stop offset=".526" stop-color="#fee2bb"></stop><stop offset=".764" stop-color="#fdd7a8"></stop><stop offset=".995" stop-color="#fbc78f"></stop><stop offset="1" stop-color="#fbc78e"></stop></radialGradient><linearGradient id="k" x1="414.863" x2="67.631" y1="405.649" y2="58.417" gradientUnits="userSpaceOnUse"><stop offset="0" stop-color="#e58200" stop-opacity="0"></stop><stop offset=".04" stop-color="#e27f04" stop-opacity=".039"></stop><stop offset=".467" stop-color="#c15d2f" stop-opacity=".467"></stop><stop offset=".802" stop-color="#ad4949" stop-opacity=".8"></stop><stop offset="1" stop-color="#a64153"></stop></linearGradient><radialGradient id="l" cx="160.864" cy="139.171" r="279.263" gradientUnits="userSpaceOnUse"><stop offset="0" stop-color="#ecf7ff"></stop><stop offset=".347" stop-color="#e9f5ff"></stop><stop offset=".62" stop-color="#dff0ff"></stop><stop offset=".867" stop-color="#cee7ff"></stop><stop offset="1" stop-color="#c2e0ff"></stop></radialGradient><linearGradient id="b"><stop offset=".003" stop-color="#c2e0ff" stop-opacity="0"></stop><stop offset=".076" stop-color="#bfdcfd" stop-opacity=".075"></stop><stop offset="1" stop-color="#9eb2e7"></stop></linearGradient><linearGradient xlink:href="#b" id="m" x1="338.669" x2="378.923" y1="325.613" y2="204.17" gradientUnits="userSpaceOnUse"></linearGradient><linearGradient xlink:href="#b" id="n" x1="292.619" x2="344.373" y1="242.532" y2="165.799" gradientUnits="userSpaceOnUse"></linearGradient><linearGradient xlink:href="#b" id="o" x1="187.198" x2="187.198" y1="259.013" y2="124.113" gradientUnits="userSpaceOnUse"></linearGradient><linearGradient xlink:href="#b" id="p" x1="108.124" x2="26.426" y1="324.45" y2="247.239" gradientUnits="userSpaceOnUse"></linearGradient><linearGradient xlink:href="#b" id="q" x1="223.179" x2="223.179" y1="341.972" y2="436.334" gradientUnits="userSpaceOnUse"></linearGradient><linearGradient xlink:href="#b" id="r" x1="215.735" x2="116.971" y1="434.182" y2="335.418" gradientUnits="userSpaceOnUse"></linearGradient><linearGradient xlink:href="#b" id="s" x1="217.206" x2="99.51" y1="460.443" y2="342.747" gradientUnits="userSpaceOnUse"></linearGradient><linearGradient id="c"><stop offset="0" stop-color="#00c6f6"></stop><stop offset=".857" stop-color="#0b9cfd"></stop><stop offset="1" stop-color="#0d94fe"></stop></linearGradient><linearGradient xlink:href="#c" id="t" x1="17.833" x2="149.047" y1="358.476" y2="489.69" gradientUnits="userSpaceOnUse"></linearGradient><linearGradient xlink:href="#c" id="u" x1="69.349" x2="200.564" y1="306.959" y2="438.174" gradientUnits="userSpaceOnUse"></linearGradient><linearGradient xlink:href="#c" id="v" x1="17.833" x2="149.047" y1="358.476" y2="489.69" gradientUnits="userSpaceOnUse"></linearGradient><linearGradient xlink:href="#c" id="w" x1="69.349" x2="200.564" y1="306.959" y2="438.174" gradientUnits="userSpaceOnUse"></linearGradient><linearGradient xlink:href="#c" id="x" x1="7.164" x2="138.378" y1="369.144" y2="500.359" gradientUnits="userSpaceOnUse"></linearGradient><linearGradient xlink:href="#c" id="y" x1="80.018" x2="211.232" y1="296.291" y2="427.505" gradientUnits="userSpaceOnUse"></linearGradient><linearGradient xlink:href="#c" id="z" x1="43.591" x2="174.805" y1="332.718" y2="463.932" gradientUnits="userSpaceOnUse"></linearGradient><linearGradient xlink:href="#c" id="A" x1="43.592" x2="174.806" y1="332.718" y2="463.932" gradientUnits="userSpaceOnUse"></linearGradient><linearGradient id="d"><stop offset="0" stop-color="#0d94fe" stop-opacity="0"></stop><stop offset=".514" stop-color="#0681cd" stop-opacity=".514"></stop><stop offset="1" stop-color="#0070a2"></stop></linearGradient><linearGradient xlink:href="#d" id="B" x1="147.651" x2="120.841" y1="455.638" y2="428.827" gradientUnits="userSpaceOnUse"></linearGradient><linearGradient xlink:href="#d" id="C" x1="146.773" x2="121.678" y1="480.79" y2="455.695" gradientUnits="userSpaceOnUse"></linearGradient><linearGradient xlink:href="#d" id="D" x1="166.443" x2="139.713" y1="436.701" y2="409.971" gradientUnits="userSpaceOnUse"></linearGradient><linearGradient xlink:href="#d" id="E" x1="191.52" x2="165.858" y1="436.191" y2="410.529" gradientUnits="userSpaceOnUse"></linearGradient><linearGradient xlink:href="#d" id="F" x1="183.673" x2="127.561" y1="472.799" y2="416.687" gradientUnits="userSpaceOnUse"></linearGradient><linearGradient xlink:href="#d" id="G" x1="151.526" x2="127.672" y1="367.72" y2="343.866" gradientUnits="userSpaceOnUse"></linearGradient><linearGradient xlink:href="#d" id="H" x1="202.166" x2="159.137" y1="374.604" y2="366.055" gradientUnits="userSpaceOnUse"></linearGradient><linearGradient xlink:href="#c" id="I" x1="109.021" x2="249.552" y1="316.339" y2="456.871" gradientUnits="userSpaceOnUse"></linearGradient><linearGradient xlink:href="#c" id="J" x1="27.212" x2="167.744" y1="398.147" y2="538.679" gradientUnits="userSpaceOnUse"></linearGradient><linearGradient xlink:href="#c" id="K" x1="109.021" x2="249.552" y1="316.339" y2="456.87" gradientUnits="userSpaceOnUse"></linearGradient><linearGradient xlink:href="#c" id="L" x1="27.213" x2="167.744" y1="398.147" y2="538.678" gradientUnits="userSpaceOnUse"></linearGradient><linearGradient xlink:href="#c" id="M" x1="119.5" x2="260.032" y1="305.86" y2="446.391" gradientUnits="userSpaceOnUse"></linearGradient><linearGradient xlink:href="#c" id="N" x1="16.733" x2="157.265" y1="408.627" y2="549.159" gradientUnits="userSpaceOnUse"></linearGradient><linearGradient xlink:href="#c" id="O" x1="68.117" x2="208.648" y1="357.243" y2="497.775" gradientUnits="userSpaceOnUse"></linearGradient><linearGradient xlink:href="#c" id="P" x1="68.117" x2="208.649" y1="357.243" y2="497.775" gradientUnits="userSpaceOnUse"></linearGradient><linearGradient xlink:href="#d" id="Q" x1="168.319" x2="111.542" y1="426.56" y2="356.963" gradientUnits="userSpaceOnUse"></linearGradient><linearGradient xlink:href="#d" id="R" x1="126.595" x2="69.024" y1="461.946" y2="391.375" gradientUnits="userSpaceOnUse"></linearGradient><linearGradient xlink:href="#d" id="S" x1="172.766" x2="114.883" y1="424.759" y2="353.806" gradientUnits="userSpaceOnUse"></linearGradient><linearGradient xlink:href="#d" id="T" x1="147.185" x2="89.301" y1="445.629" y2="374.675" gradientUnits="userSpaceOnUse"></linearGradient><linearGradient id="e"><stop offset="0" stop-color="#ecf7ff"></stop><stop offset="1" stop-color="#c2e0ff"></stop></linearGradient><radialGradient xlink:href="#e" id="U" cx="129.23" cy="418.357" r="23.181" gradientUnits="userSpaceOnUse"></radialGradient><linearGradient xlink:href="#c" id="V" x1="113.721" x2="188.174" y1="402.848" y2="477.301" gradientUnits="userSpaceOnUse"></linearGradient><radialGradient xlink:href="#e" id="W" cx="93.455" cy="368.437" r="145.086" gradientUnits="userSpaceOnUse"></radialGradient><radialGradient xlink:href="#e" id="X" cx="93.454" cy="368.437" r="145.086" gradientUnits="userSpaceOnUse"></radialGradient><radialGradient xlink:href="#e" id="Y" cx="93.455" cy="368.436" r="145.086" gradientUnits="userSpaceOnUse"></radialGradient><radialGradient xlink:href="#e" id="Z" cx="93.454" cy="368.436" r="145.085" gradientUnits="userSpaceOnUse"></radialGradient><radialGradient xlink:href="#e" id="aa" cx="93.454" cy="368.437" r="145.087" gradientUnits="userSpaceOnUse"></radialGradient><radialGradient xlink:href="#e" id="ab" cx="93.454" cy="368.436" r="145.087" gradientUnits="userSpaceOnUse"></radialGradient><radialGradient xlink:href="#e" id="ac" cx="93.455" cy="368.437" r="145.087" gradientUnits="userSpaceOnUse"></radialGradient><radialGradient xlink:href="#e" id="ad" cx="93.455" cy="368.436" r="145.087" gradientUnits="userSpaceOnUse"></radialGradient><linearGradient id="f"><stop offset="0" stop-color="#fff" stop-opacity="0"></stop><stop offset="1" stop-color="#fff"></stop></linearGradient><linearGradient xlink:href="#f" id="ae" x1="177.709" x2="21.408" y1="481.303" y2="278.358" gradientUnits="userSpaceOnUse"></linearGradient><linearGradient xlink:href="#f" id="af" x1="189.916" x2="33.614" y1="471.903" y2="268.957" gradientUnits="userSpaceOnUse"></linearGradient><linearGradient xlink:href="#f" id="ag" x1="218.226" x2="61.923" y1="450.101" y2="247.152" gradientUnits="userSpaceOnUse"></linearGradient><linearGradient xlink:href="#f" id="ah" x1="137.211" x2="-19.09" y1="512.493" y2="309.547" gradientUnits="userSpaceOnUse"></linearGradient><linearGradient xlink:href="#f" id="ai" x1="165.521" x2="9.218" y1="490.69" y2="287.743" gradientUnits="userSpaceOnUse"></linearGradient><linearGradient xlink:href="#f" id="aj" x1="222.836" x2="66.534" y1="446.549" y2="243.602" gradientUnits="userSpaceOnUse"></linearGradient><linearGradient xlink:href="#f" id="ak" x1="201.033" x2="44.73" y1="463.34" y2="260.391" gradientUnits="userSpaceOnUse"></linearGradient><linearGradient xlink:href="#f" id="al" x1="154.403" x2="-1.898" y1="499.253" y2="296.306" gradientUnits="userSpaceOnUse"></linearGradient><linearGradient xlink:href="#f" id="am" x1="132.601" x2="-23.703" y1="516.045" y2="313.096" gradientUnits="userSpaceOnUse"></linearGradient><linearGradient xlink:href="#a" id="an" x1="417.467" x2="371.972" y1="505.809" y2="460.314" gradientUnits="userSpaceOnUse"></linearGradient><linearGradient xlink:href="#c" id="ao" x1="295.33" x2="375.982" y1="415.338" y2="495.99" gradientUnits="userSpaceOnUse"></linearGradient><linearGradient xlink:href="#c" id="ap" x1="326.995" x2="407.647" y1="383.672" y2="464.325" gradientUnits="userSpaceOnUse"></linearGradient><linearGradient xlink:href="#c" id="aq" x1="295.33" x2="375.982" y1="415.337" y2="495.99" gradientUnits="userSpaceOnUse"></linearGradient><linearGradient xlink:href="#c" id="ar" x1="326.995" x2="407.647" y1="383.672" y2="464.325" gradientUnits="userSpaceOnUse"></linearGradient><linearGradient xlink:href="#c" id="as" x1="288.771" x2="369.426" y1="421.893" y2="502.548" gradientUnits="userSpaceOnUse"></linearGradient><linearGradient xlink:href="#c" id="at" x1="333.553" x2="414.205" y1="377.115" y2="457.767" gradientUnits="userSpaceOnUse"></linearGradient><linearGradient xlink:href="#c" id="au" x1="311.163" x2="391.815" y1="399.505" y2="480.157" gradientUnits="userSpaceOnUse"></linearGradient><linearGradient xlink:href="#c" id="av" x1="311.163" x2="391.815" y1="399.505" y2="480.157" gradientUnits="userSpaceOnUse"></linearGradient><linearGradient xlink:href="#d" id="aw" x1="375.124" x2="358.645" y1="475.059" y2="458.579" gradientUnits="userSpaceOnUse"></linearGradient><linearGradient xlink:href="#d" id="ax" x1="374.584" x2="359.16" y1="490.519" y2="475.094" gradientUnits="userSpaceOnUse"></linearGradient><linearGradient xlink:href="#d" id="ay" x1="386.675" x2="370.245" y1="463.419" y2="446.989" gradientUnits="userSpaceOnUse"></linearGradient><linearGradient xlink:href="#d" id="az" x1="402.088" x2="386.315" y1="463.106" y2="447.332" gradientUnits="userSpaceOnUse"></linearGradient><linearGradient xlink:href="#d" id="aA" x1="397.265" x2="362.775" y1="485.607" y2="451.117" gradientUnits="userSpaceOnUse"></linearGradient><linearGradient xlink:href="#d" id="aB" x1="377.506" x2="362.844" y1="421.019" y2="406.357" gradientUnits="userSpaceOnUse"></linearGradient><linearGradient xlink:href="#d" id="aC" x1="408.632" x2="382.184" y1="425.25" y2="419.996" gradientUnits="userSpaceOnUse"></linearGradient><linearGradient xlink:href="#c" id="aD" x1="351.38" x2="437.758" y1="389.438" y2="475.817" gradientUnits="userSpaceOnUse"></linearGradient><linearGradient xlink:href="#c" id="aE" x1="301.095" x2="387.475" y1="439.721" y2="526.101" gradientUnits="userSpaceOnUse"></linearGradient><linearGradient xlink:href="#c" id="aF" x1="351.379" x2="437.759" y1="389.437" y2="475.817" gradientUnits="userSpaceOnUse"></linearGradient><linearGradient xlink:href="#c" id="aG" x1="301.095" x2="387.474" y1="439.722" y2="526.101" gradientUnits="userSpaceOnUse"></linearGradient><linearGradient xlink:href="#c" id="aH" x1="357.821" x2="444.2" y1="382.996" y2="469.375" gradientUnits="userSpaceOnUse"></linearGradient><linearGradient xlink:href="#c" id="aI" x1="294.654" x2="381.033" y1="446.163" y2="532.542" gradientUnits="userSpaceOnUse"></linearGradient><linearGradient xlink:href="#c" id="aJ" x1="326.237" x2="412.617" y1="414.58" y2="500.959" gradientUnits="userSpaceOnUse"></linearGradient><linearGradient xlink:href="#c" id="aK" x1="326.237" x2="412.616" y1="414.58" y2="500.959" gradientUnits="userSpaceOnUse"></linearGradient><linearGradient xlink:href="#d" id="aL" x1="387.828" x2="352.929" y1="457.186" y2="414.407" gradientUnits="userSpaceOnUse"></linearGradient><linearGradient xlink:href="#d" id="aM" x1="362.182" x2="326.795" y1="478.936" y2="435.559" gradientUnits="userSpaceOnUse"></linearGradient><linearGradient xlink:href="#d" id="aN" x1="390.562" x2="354.983" y1="456.08" y2="412.467" gradientUnits="userSpaceOnUse"></linearGradient><linearGradient xlink:href="#d" id="aO" x1="374.838" x2="339.258" y1="468.907" y2="425.294" gradientUnits="userSpaceOnUse"></linearGradient><radialGradient xlink:href="#e" id="aP" cx="363.801" cy="452.143" r="14.249" gradientUnits="userSpaceOnUse"></radialGradient><linearGradient xlink:href="#c" id="aQ" x1="354.269" x2="400.032" y1="442.611" y2="488.374" gradientUnits="userSpaceOnUse"></linearGradient><radialGradient xlink:href="#e" id="aR" cx="341.812" cy="421.46" r="89.174" gradientUnits="userSpaceOnUse"></radialGradient><radialGradient xlink:href="#e" id="aS" cx="341.81" cy="421.46" r="89.181" gradientUnits="userSpaceOnUse"></radialGradient><radialGradient xlink:href="#e" id="aT" cx="341.812" cy="421.463" r="89.174" gradientUnits="userSpaceOnUse"></radialGradient><radialGradient xlink:href="#e" id="aU" cx="341.81" cy="421.463" r="89.176" gradientUnits="userSpaceOnUse"></radialGradient><radialGradient xlink:href="#e" id="aV" cx="341.81" cy="421.461" r="89.18" gradientUnits="userSpaceOnUse"></radialGradient><radialGradient xlink:href="#e" id="aW" cx="341.81" cy="421.458" r="89.181" gradientUnits="userSpaceOnUse"></radialGradient><radialGradient xlink:href="#e" id="aX" cx="341.812" cy="421.461" r="89.175" gradientUnits="userSpaceOnUse"></radialGradient><radialGradient xlink:href="#e" id="aY" cx="341.812" cy="421.458" r="89.181" gradientUnits="userSpaceOnUse"></radialGradient><linearGradient xlink:href="#f" id="aZ" x1="393.6" x2="297.528" y1="490.834" y2="366.092" gradientUnits="userSpaceOnUse"></linearGradient><linearGradient xlink:href="#f" id="ba" x1="401.102" x2="305.03" y1="485.056" y2="360.313" gradientUnits="userSpaceOnUse"></linearGradient><linearGradient xlink:href="#f" id="bb" x1="418.503" x2="322.43" y1="471.655" y2="346.911" gradientUnits="userSpaceOnUse"></linearGradient><linearGradient xlink:href="#f" id="bc" x1="368.706" x2="272.638" y1="510.005" y2="385.267" gradientUnits="userSpaceOnUse"></linearGradient><linearGradient xlink:href="#f" id="bd" x1="386.107" x2="290.038" y1="496.604" y2="371.864" gradientUnits="userSpaceOnUse"></linearGradient><linearGradient xlink:href="#f" id="be" x1="421.337" x2="325.266" y1="469.471" y2="344.731" gradientUnits="userSpaceOnUse"></linearGradient><linearGradient xlink:href="#f" id="bf" x1="407.936" x2="311.862" y1="479.793" y2="355.049" gradientUnits="userSpaceOnUse"></linearGradient><linearGradient xlink:href="#f" id="bg" x1="379.273" x2="283.203" y1="501.866" y2="377.126" gradientUnits="userSpaceOnUse"></linearGradient><linearGradient xlink:href="#f" id="bh" x1="365.873" x2="269.8" y1="512.189" y2="387.445" gradientUnits="userSpaceOnUse"></linearGradient><path fill="url(#g)" d="M512 256c0 141.387-114.613 256-256 256C114.617 512 0 397.387 0 256 0 114.617 114.617 0 256 0c141.387 0 256 114.617 256 256zm0 0" data-original="url(#g)" class=""></path><path fill="url(#h)" d="M256 512c141.387 0 256-114.613 256-256 0-19.66-2.223-38.805-6.422-57.195L317.371 7.425a253.411 253.411 0 0 0-15.398-3.3c-55.391 31.488-89.223 96.563-73.41 167.559.187.851.39 1.703.605 2.558-12.57-6.504-26.84-10.183-41.969-10.183-50.527 0-91.488 40.96-91.488 91.484 0 .312.012.617.012.93-32.098 5.34-56.57 33.23-56.57 66.843 0 20.5 9.113 38.856 23.492 51.282l129.328 129.328C212.437 509.199 233.89 512 256 512zm0 0" data-original="url(#h)"></path><path fill="url(#i)" d="m335.34 501.148-1.254-1.273C309.469 507.754 283.238 512 256 512c-89.809 0-168.82-46.25-214.508-116.234.211-.309.461-.602.742-.883 2.864-2.86 7.512-2.86 10.371 0l14.047 14.047h13.793l-10.55-11.086a5.1 5.1 0 0 1-.301-.98 5.253 5.253 0 0 1-.114-1.055c0-.352.043-.704.114-1.036a7.414 7.414 0 0 1-2.32-2.609l-12.239-12.238a7.338 7.338 0 0 1-3.914-6.485 7.333 7.333 0 0 1 7.336-7.34h8.145l-1.004-1.003a7.335 7.335 0 0 1 5.187-12.52c1.406 0 2.813.402 4.04 1.203.41.274.792.586 1.152.946l.996 1.003v-8.152a7.33 7.33 0 0 1 7.336-7.328c2.812 0 5.25 1.586 6.488 3.906l12.246 12.246a7.451 7.451 0 0 1 2.59 2.301 5.31 5.31 0 0 1 1.066-.101c.36 0 .711.03 1.051.101.344.07.676.168.984.309a5.354 5.354 0 0 1 1.477.945l7.71 8.23a5.478 5.478 0 0 1 1.477.958c.141.128.27.27.399.41V355.77l-10.973-10.973-3.058-3.063a7.309 7.309 0 0 1 0-10.367 7.316 7.316 0 0 1 10.367 0l3.062 3.059.633.625c0-.04.012-.082.012-.121.008-.18.039-.371.058-.551.02-.121.04-.242.063-.363.027-.18.07-.36.11-.532.03-.12.058-.242.1-.363.04-.168.099-.34.161-.512.04-.109.078-.23.117-.34.07-.171.14-.331.211-.48.05-.121.102-.234.164-.344.078-.148.16-.3.239-.453.07-.11.132-.219.203-.32.09-.14.18-.281.28-.422.071-.098.15-.21.231-.309.098-.132.2-.261.309-.382.082-.102.184-.2.273-.301.11-.11.211-.23.332-.332.098-.102.2-.192.309-.29.113-.1.223-.202.344-.292.117-.09.23-.18.351-.262.118-.09.239-.18.371-.262.122-.078.25-.16.38-.238.132-.07.253-.14.382-.21.129-.083.281-.142.422-.212.129-.062.25-.12.383-.172.148-.07.308-.12.469-.172.12-.046.253-.097.382-.14.172-.047.34-.09.524-.13l.36-.089c.202-.039.402-.062.6-.09.114-.012.212-.043.313-.05.313-.032.633-.04.946-.04.32 0 .64.008.953.04.101.007.199.038.312.05.2.028.399.051.602.09l.36.09c.183.039.35.082.523.129.128.043.25.094.382.14.16.051.309.102.47.172.132.051.253.11.382.172.14.07.281.13.422.211.129.07.25.14.383.211.129.078.257.16.379.238.132.082.253.172.37.262.114.082.231.172.352.262.113.09.23.191.344.293.11.097.21.187.309.289.12.101.222.222.332.332.09.101.191.199.273.3.11.122.21.25.309.383.082.098.16.211.23.309.102.14.191.281.281.422.02.02.032.05.051.082.07.039.14.078.211.129.133.082.25.172.371.262.11.082.23.16.344.25l.351.3c.11.102.211.192.309.282.121.113.223.23.332.343.09.098.191.2.27.301.113.121.21.25.312.383.082.098.16.207.23.309.063.082.11.16.16.242l2.192-2.188a7.316 7.316 0 0 1 10.367 0 7.493 7.493 0 0 1 1.309 1.754l12.234 12.25c.274.14.535.309.785.48.782-3.21 3.676-5.601 7.13-5.601a7.346 7.346 0 0 1 6.484 3.906s93.754 94.399 135.34 136.875c9.011 9.203 15.57 15.973 18.199 18.813.594.633.984 1.074 1.164 1.304zm0 0" data-original="url(#i)" class=""></path><path fill="url(#j)" d="M450.883 214.637c-83.465-.203-151.7-68.438-151.903-151.903-.054-21.75 4.461-42.437 12.63-61.172.456-1.05-.833-2.09-2.485-1.265-59.59 29.805-97.043 97.383-80.563 171.387 11.29 50.691 62.68 102.086 113.375 113.375 72.653 16.18 139.2-19.582 169.72-77.325 1.261-2.386-1.157-5.03-3.66-4.027-17.645 7.094-36.923 10.98-57.114 10.93zm0 0" data-original="url(#j)"></path><path fill="url(#k)" d="M215.875 307.23c-2.074 7.262 6.945 12.47 12.2 7.043v-.003c22.175-22.922 60.91-12.543 68.652 18.398 1.836 7.328 12.246 7.328 14.082 0 7.746-30.941 46.476-41.32 68.652-18.398v.003c5.254 5.426 14.273.22 12.195-7.043-2.894-10.14-1.734-20.023 2.227-28.398l-67.52-67.52c-8.738-9.261-21.117-15.054-34.855-15.054a47.666 47.666 0 0 0-26.336 7.894c-.121-.117-11.629-11.629-12.3-12.28-16.63-17.15-39.903-27.813-65.677-27.813-16.742 0-32.43 4.504-45.93 12.355 30.094 8.367 39.965 46.445 17.313 68.363-5.43 5.25-.223 14.27 7.04 12.196 30.667-8.766 59.023 19.59 50.257 50.257zm0 0" data-original="url(#k)"></path><path fill="url(#l)" d="M339.43 255.543c-.461 0-.914.008-1.371.02a47.92 47.92 0 0 0 1.37-11.38c0-26.468-21.456-47.925-47.921-47.925a47.695 47.695 0 0 0-27.903 8.972c-16.363-24.8-44.472-41.171-76.41-41.171-50.523 0-91.484 40.96-91.484 91.488 0 .308.008.617.012.926-32.098 5.34-56.57 33.23-56.57 66.843 0 37.434 30.343 67.778 67.773 67.778H339.43c37.43 0 67.773-30.344 67.773-67.778 0-37.425-30.344-67.773-67.773-67.773zm0 0" data-original="url(#l)"></path><path fill="url(#m)" d="M407.203 323.32c0 37.43-30.344 67.774-67.773 67.774-37.43 0-67.774-30.344-67.774-67.774S302 255.547 339.43 255.547s67.773 30.344 67.773 67.773zm0 0" data-original="url(#m)"></path><path fill="url(#n)" d="M339.43 244.184c0 26.464-21.457 47.921-47.922 47.921-26.469 0-47.926-21.457-47.926-47.921 0-26.47 21.457-47.926 47.926-47.926 26.465 0 47.922 21.457 47.922 47.926zm0 0" data-original="url(#n)"></path><path fill="url(#o)" d="M278.684 255.547c0 50.523-40.961 91.484-91.485 91.484-50.527 0-91.488-40.96-91.488-91.484 0-50.527 40.96-91.488 91.488-91.488 50.524 0 91.485 40.96 91.485 91.488zm0 0" data-original="url(#o)" class=""></path><path fill="url(#p)" d="M174.7 323.32c0 37.43-30.34 67.774-67.774 67.774-37.43 0-67.774-30.344-67.774-67.774s30.344-67.773 67.774-67.773c37.433 0 67.773 30.344 67.773 67.773zm0 0" data-original="url(#p)" class=""></path><path fill="url(#q)" d="M39.781 332.55c4.504 33.063 32.848 58.544 67.145 58.544H339.43c34.297 0 62.64-25.48 67.144-58.543zm0 0" data-original="url(#q)" class=""></path><path fill="url(#r)" d="m231.863 391.094-3.535-3.535c-5.02-5.426-12.195-8.825-20.168-8.825-.094 0-.183.008-.277.012a6.266 6.266 0 0 0-.164-.16l-18.14-18.14c-7.888-8.262-19.005-13.415-31.329-13.415-23.934 0-43.332 19.399-43.332 43.332 0 .117.008.235.008.356-.516.101-1.024.23-1.528.375zm0 0" data-original="url(#r)"></path><path fill="url(#s)" d="M174.152 340.25c-3.453 0-6.347 2.39-7.129 5.602a7.27 7.27 0 0 0-.785-.48l-12.234-12.25a7.493 7.493 0 0 0-1.309-1.755 7.316 7.316 0 0 0-10.367 0l-2.191 2.188c-.051-.082-.098-.16-.16-.242a4.219 4.219 0 0 0-.23-.31 4.894 4.894 0 0 0-.31-.382c-.082-.101-.183-.203-.273-.3-.11-.114-.21-.231-.332-.344-.098-.09-.2-.18-.309-.282-.109-.097-.23-.199-.351-.3-.11-.09-.23-.168-.344-.25a4.469 4.469 0 0 0-.371-.262c-.07-.051-.14-.09-.21-.13-.02-.03-.028-.062-.048-.081-.09-.14-.183-.281-.281-.422a5.365 5.365 0 0 0-.234-.309 4.894 4.894 0 0 0-.309-.382c-.082-.102-.18-.2-.273-.301-.11-.11-.211-.23-.329-.332-.101-.102-.203-.192-.312-.29a5.94 5.94 0 0 0-.344-.292c-.12-.09-.238-.18-.351-.262a4.469 4.469 0 0 0-.371-.262c-.122-.078-.25-.16-.38-.238-.132-.07-.253-.14-.382-.21-.14-.083-.281-.142-.422-.212a4.778 4.778 0 0 0-.383-.172 4.534 4.534 0 0 0-.469-.172c-.132-.046-.254-.097-.382-.14a9.325 9.325 0 0 0-.524-.13l-.36-.089c-.202-.039-.402-.062-.6-.09-.114-.012-.212-.043-.313-.05a9.622 9.622 0 0 0-.953-.04c-.313 0-.633.008-.946.04-.101.007-.199.038-.312.05-.2.028-.399.051-.602.09l-.36.09c-.183.039-.35.082-.523.129a8.717 8.717 0 0 0-.382.14c-.16.051-.32.102-.47.172-.132.051-.253.11-.382.172-.14.07-.293.13-.422.211-.129.07-.25.14-.383.211-.129.078-.257.16-.379.238a4.469 4.469 0 0 0-.37.262c-.122.082-.235.172-.352.262-.121.09-.23.191-.344.293-.11.097-.21.187-.309.289-.12.101-.222.222-.332.332-.09.101-.191.199-.273.3-.11.122-.211.25-.309.383-.082.098-.16.211-.23.309-.102.14-.192.281-.281.422-.07.101-.13.21-.2.32l-.242.453c-.062.11-.11.223-.16.344-.07.149-.14.309-.21.48-.044.11-.083.231-.122.34a4.523 4.523 0 0 0-.16.512c-.043.121-.07.242-.102.363-.039.172-.078.352-.11.532-.019.12-.038.242-.062.363-.02.18-.05.371-.058.55 0 .04-.012.083-.012.122l-.633-.625-3.062-3.059a7.316 7.316 0 0 0-10.367 0 7.309 7.309 0 0 0 0 10.367l3.058 3.063 10.973 10.973v13.785a6.58 6.58 0 0 0-.399-.41 5.478 5.478 0 0 0-1.476-.957l-7.711-8.231c-.43-.39-.934-.71-1.477-.945a4.585 4.585 0 0 0-.984-.309 5.182 5.182 0 0 0-1.05-.101 5.31 5.31 0 0 0-1.067.101 7.451 7.451 0 0 0-2.59-2.3l-12.246-12.247c-1.238-2.32-3.676-3.906-6.488-3.906a7.33 7.33 0 0 0-7.336 7.328v8.152l-.996-1.003a7.525 7.525 0 0 0-1.153-.946 7.384 7.384 0 0 0-4.039-1.203 7.335 7.335 0 0 0-5.188 12.52l1.005 1.004h-8.145a7.34 7.34 0 0 0-3.39.832c12.433 14.77 31.046 24.16 51.859 24.16h6.5c-9.145 2.554-15.856 10.933-15.856 20.894 0 11.989 9.72 21.707 21.711 21.707h88.88c15.179 0 27.48-12.3 27.48-27.48 0-2.68-.395-5.266-1.11-7.715-29.457-29.738-53.894-54.344-53.894-54.344a7.346 7.346 0 0 0-6.485-3.906zm0 0" data-original="url(#s)" class=""></path><path fill="url(#t)" d="M129.23 510.441c-5.207 0-9.43-4.222-9.43-9.43v-62.277c0-5.207 4.223-9.43 9.43-9.43s9.43 4.223 9.43 9.43v62.278c0 5.207-4.222 9.43-9.43 9.43zm0 0" data-original="url(#t)"></path><path fill="url(#u)" d="M129.23 407.406c-5.207 0-9.43-4.222-9.43-9.43v-62.273c0-5.207 4.223-9.43 9.43-9.43s9.43 4.223 9.43 9.43v62.274c0 5.21-4.222 9.43-9.43 9.43zm0 0" data-original="url(#u)"></path><path fill="url(#v)" d="M108.852 427.79H46.578a9.432 9.432 0 1 1 0-18.864h62.274c5.207 0 9.43 4.222 9.43 9.43 0 5.21-4.223 9.433-9.43 9.433zm0 0" data-original="url(#v)"></path><path fill="url(#w)" d="M211.883 427.79h-62.274c-5.207 0-9.43-4.224-9.43-9.435 0-5.207 4.223-9.43 9.43-9.43h62.274c5.21 0 9.433 4.223 9.433 9.43-.004 5.211-4.226 9.434-9.433 9.434zm0 0" data-original="url(#w)"></path><path fill="url(#x)" d="M70.785 484.133a7.299 7.299 0 0 1-5.183-2.149 7.328 7.328 0 0 1 0-10.37l44.03-44.032a7.332 7.332 0 0 1 10.376 0 7.335 7.335 0 0 1 0 10.371l-44.035 44.031a7.301 7.301 0 0 1-5.188 2.149zm0 0" data-original="url(#x)"></path><path fill="url(#y)" d="M143.64 411.281a7.308 7.308 0 0 1-5.187-2.148 7.34 7.34 0 0 1 0-10.375l44.035-44.031a7.335 7.335 0 0 1 10.371 0 7.332 7.332 0 0 1 0 10.375l-44.03 44.03a7.314 7.314 0 0 1-5.188 2.15zm0 0" data-original="url(#y)"></path><path fill="url(#z)" d="M114.82 411.281a7.301 7.301 0 0 1-5.187-2.148l-44.031-44.031a7.332 7.332 0 0 1 0-10.375 7.335 7.335 0 0 1 10.37 0l44.032 44.03a7.332 7.332 0 0 1 0 10.376 7.299 7.299 0 0 1-5.184 2.148zm0 0" data-original="url(#z)"></path><path fill="url(#A)" d="M187.672 484.133a7.314 7.314 0 0 1-5.188-2.149l-44.03-44.03a7.335 7.335 0 0 1 0-10.372 7.328 7.328 0 0 1 10.37 0l44.035 44.031a7.335 7.335 0 0 1-5.187 12.52zm0 0" data-original="url(#A)"></path><path fill="url(#B)" d="M138.664 438.734v19.73l-18.867-18.862v-.868c0-5.207 4.226-9.43 9.433-9.43s9.434 4.223 9.434 9.43zm0 0" data-original="url(#B)"></path><path fill="url(#C)" d="M119.797 462.219h18.867v20.914l-18.863-18.86-.004.004zm0 0" data-original="url(#C)"></path><path fill="url(#D)" d="m150.379 408.957 18.832 18.832h-19.606c-5.207 0-9.425-4.223-9.425-9.434 0-5.207 4.218-9.43 9.425-9.43h.887zm0 0" data-original="url(#D)"></path><path fill="url(#E)" d="M194.023 427.79h-21.812v-18.864h2.95zm0 0" data-original="url(#E)"></path><path fill="url(#F)" d="M187.672 484.133a7.314 7.314 0 0 1-5.188-2.149l-44.03-44.03a7.335 7.335 0 0 1 0-10.372 7.328 7.328 0 0 1 10.37 0l44.035 44.031a7.335 7.335 0 0 1-5.187 12.52zm0 0" data-original="url(#F)"></path><path fill="url(#G)" d="M138.66 374.633v-38.93c0-.219-.008-.437-.023-.652l-9.407 9.406-9.406-9.406a9.018 9.018 0 0 0-.023.652v20.07zm0 0" data-original="url(#G)"></path><path fill="url(#H)" d="m191.86 366.102-17.704 17.703-5.066-5.067a7.294 7.294 0 0 1-2.274-5.3v-3.04l14.672-14.668zm0 0" data-original="url(#H)"></path><path fill="url(#I)" d="m142.324 331.363-13.094 13.094-13.097-13.094a7.328 7.328 0 0 0-10.371 0 7.328 7.328 0 0 0 0 10.371l18.281 18.282a7.308 7.308 0 0 0 5.187 2.148 7.308 7.308 0 0 0 5.188-2.148l18.281-18.282a7.335 7.335 0 0 0 0-10.37 7.332 7.332 0 0 0-10.375 0zm0 0" data-original="url(#I)"></path><path fill="url(#J)" d="M134.418 476.695a7.34 7.34 0 0 0-10.375 0l-18.281 18.282a7.34 7.34 0 0 0 0 10.375 7.34 7.34 0 0 0 10.375 0l13.093-13.094 13.094 13.094a7.314 7.314 0 0 0 5.188 2.148 7.308 7.308 0 0 0 5.187-2.148 7.34 7.34 0 0 0 0-10.375zm0 0" data-original="url(#J)"></path><path fill="url(#K)" d="m203.129 418.355 13.098-13.093a7.34 7.34 0 0 0 0-10.375 7.34 7.34 0 0 0-10.375 0l-18.282 18.281a7.34 7.34 0 0 0 0 10.375l18.282 18.281a7.308 7.308 0 0 0 5.187 2.149 7.308 7.308 0 0 0 5.188-2.149 7.34 7.34 0 0 0 0-10.375zm0 0" data-original="url(#K)"></path><path fill="url(#L)" d="M70.89 423.543a7.335 7.335 0 0 0 0-10.371L52.61 394.89a7.332 7.332 0 0 0-10.376 0 7.335 7.335 0 0 0 0 10.37l13.094 13.094-13.094 13.098a7.335 7.335 0 1 0 10.375 10.371zm0 0" data-original="url(#L)"></path><path fill="url(#M)" d="M174.148 380.773h25.856a7.337 7.337 0 0 0 0-14.671h-18.52v-18.52a7.337 7.337 0 0 0-14.672 0v25.856c.004 4.05 3.286 7.335 7.336 7.335zm0 0" data-original="url(#M)"></path><path fill="url(#N)" d="M84.309 455.941H58.457a7.334 7.334 0 0 0-7.336 7.336 7.334 7.334 0 0 0 7.336 7.336h18.52v18.516a7.331 7.331 0 0 0 7.332 7.336 7.332 7.332 0 0 0 7.336-7.336v-25.852a7.334 7.334 0 0 0-7.336-7.336zm0 0" data-original="url(#N)"></path><path fill="url(#O)" d="M200.004 455.941h-25.856a7.337 7.337 0 0 0-7.335 7.336v25.852a7.334 7.334 0 0 0 7.335 7.336 7.334 7.334 0 0 0 7.336-7.336v-18.516h18.52a7.337 7.337 0 0 0 0-14.672zm0 0" data-original="url(#O)"></path><path fill="url(#P)" d="M84.309 340.246a7.334 7.334 0 0 0-7.332 7.336v18.52h-18.52c-4.055 0-7.336 3.285-7.336 7.336s3.281 7.335 7.336 7.335h25.852a7.334 7.334 0 0 0 7.336-7.335v-25.856a7.334 7.334 0 0 0-7.336-7.336zm0 0" data-original="url(#P)"></path><path fill="url(#Q)" d="M138.664 372.426v25.554c0 .196-.008.391-.02.586a9.342 9.342 0 0 1-1.164 3.98l-17.683-17.683v-12.437zm0 0" data-original="url(#Q)"></path><path fill="url(#R)" d="M113.27 426.695a9.447 9.447 0 0 1-4.418 1.094H83.3v-18.863h12.195zm0 0" data-original="url(#R)"></path><path fill="url(#S)" d="m166.895 391.066-8.68 8.676-9.387 9.39a7.33 7.33 0 0 1-5.187 2.15 7.324 7.324 0 0 1-5.188-2.15 7.306 7.306 0 0 1-2.144-4.925 7.316 7.316 0 0 1 2.144-5.45l.192-.19 9.199-9.196 8.676-8.68zm0 0" data-original="url(#S)"></path><path fill="url(#T)" d="M122.152 404.207a7.342 7.342 0 0 1-7.07 7.07c-.086.004-.176.004-.266.004a7.322 7.322 0 0 1-5.183-2.148l-9.39-9.39-8.68-8.677 10.378-10.375 8.672 8.68 9.203 9.195.192.196a7.296 7.296 0 0 1 2.144 5.445zm0 0" data-original="url(#T)"></path><path fill="url(#U)" d="M129.23 441.535a23.026 23.026 0 0 1-16.39-6.789c-4.38-4.375-6.79-10.2-6.79-16.39 0-6.192 2.41-12.012 6.79-16.391 4.375-4.38 10.2-6.79 16.39-6.79 6.192 0 12.012 2.41 16.391 6.79s6.79 10.2 6.79 16.39c0 6.192-2.411 12.016-6.79 16.391a23.026 23.026 0 0 1-16.39 6.79zm0-34.09a10.851 10.851 0 0 0-7.714 3.196 10.835 10.835 0 0 0-3.196 7.714c0 2.918 1.133 5.657 3.196 7.72a10.851 10.851 0 0 0 7.714 3.195c2.915 0 5.653-1.137 7.715-3.196a10.853 10.853 0 0 0 3.196-7.719c0-2.914-1.133-5.652-3.196-7.714a10.851 10.851 0 0 0-7.715-3.196zm0 0" data-original="url(#U)"></path><path fill="url(#V)" d="M145.715 464.285h-32.969a6.122 6.122 0 0 1-4.336-1.797L85.098 439.18a6.148 6.148 0 0 1-1.797-4.34V401.87c0-1.625.648-3.184 1.797-4.336l23.312-23.312a6.139 6.139 0 0 1 4.336-1.797h32.969c1.625 0 3.187.648 4.336 1.797l23.312 23.312a6.13 6.13 0 0 1 1.797 4.336v32.969a6.131 6.131 0 0 1-1.797 4.34l-23.312 23.308a6.122 6.122 0 0 1-4.336 1.797zm-30.426-12.27h27.883l19.719-19.714v-27.887l-19.72-19.719H115.29l-19.719 19.72V432.3zm0 0" data-original="url(#V)"></path><path fill="url(#W)" d="M111.941 363.844a5.25 5.25 0 0 1-5.246 5.25 5.248 5.248 0 1 1 5.246-5.25zm0 0" data-original="url(#W)"></path><path fill="url(#X)" d="M157.043 363.844a5.248 5.248 0 1 1-10.496.004 5.248 5.248 0 0 1 10.496-.004zm0 0" data-original="url(#X)"></path><path fill="url(#Y)" d="M111.941 472.867a5.25 5.25 0 0 1-5.246 5.25 5.248 5.248 0 1 1 5.246-5.25zm0 0" data-original="url(#Y)"></path><path fill="url(#Z)" d="M157.043 472.867a5.248 5.248 0 1 1-10.496.004 5.248 5.248 0 0 1 10.496-.004zm0 0" data-original="url(#Z)"></path><path fill="url(#aa)" d="M189.004 395.805a5.248 5.248 0 1 1-10.496.004 5.248 5.248 0 0 1 10.496-.004zm0 0" data-original="url(#aa)"></path><path fill="url(#ab)" d="M189.004 440.906a5.248 5.248 0 1 1-10.496.004 5.248 5.248 0 0 1 10.496-.004zm0 0" data-original="url(#ab)"></path><path fill="url(#ac)" d="M79.98 395.805a5.25 5.25 0 0 1-5.246 5.25 5.248 5.248 0 1 1 5.246-5.25zm0 0" data-original="url(#ac)"></path><path fill="url(#ad)" d="M79.98 440.906a5.25 5.25 0 0 1-5.246 5.25 5.248 5.248 0 1 1 5.246-5.25zm0 0" data-original="url(#ad)"></path><path fill="url(#ae)" d="M221.313 418.355c0-4.988-3.872-9.07-8.778-9.406l3.692-3.687a7.34 7.34 0 0 0 0-10.375 7.34 7.34 0 0 0-10.375 0l-14.036 14.039H175.16v-7.055a6.13 6.13 0 0 0-1.797-4.336l-6.468-6.469 7.261-7.261 3.035-3.032h22.817c4.05 0 7.332-3.285 7.332-7.335s-3.281-7.336-7.332-7.336h-8.149l1-1a7.336 7.336 0 0 0 .004-10.375 7.34 7.34 0 0 0-10.375 0l-1 1v-8.145a7.337 7.337 0 0 0-14.672 0v22.816l-10.296 10.293-6.47-6.468a6.139 6.139 0 0 0-4.335-1.797h-7.055v-16.653l14.04-14.035a7.34 7.34 0 0 0 0-10.375 7.34 7.34 0 0 0-10.376 0l-3.687 3.688c-.336-4.903-4.418-8.778-9.407-8.778s-9.07 3.875-9.406 8.778l-3.687-3.688a7.34 7.34 0 0 0-10.375 0 7.34 7.34 0 0 0 0 10.375l14.039 14.035v16.653h-7.055a6.146 6.146 0 0 0-4.336 1.797l-6.469 6.468-10.296-10.293v-22.816a7.334 7.334 0 1 0-14.668 0v8.145l-1.004-1a7.335 7.335 0 0 0-10.371 0 7.332 7.332 0 0 0 0 10.375l1 1h-8.145c-4.055 0-7.336 3.285-7.336 7.336s3.281 7.335 7.336 7.335H81.27l10.296 10.293-6.468 6.47a6.13 6.13 0 0 0-1.797 4.335v7.055H66.645l-14.036-14.04a7.34 7.34 0 0 0-10.375 0 7.34 7.34 0 0 0 0 10.376l3.692 3.687c-4.906.336-8.781 4.418-8.781 9.406 0 4.993 3.875 9.07 8.78 9.407l-3.69 3.691a7.335 7.335 0 1 0 10.374 10.371l14.04-14.035H83.3v7.05c0 1.63.644 3.188 1.797 4.34l6.468 6.47-10.293 10.292H58.457a7.334 7.334 0 0 0-7.336 7.336 7.334 7.334 0 0 0 7.336 7.336h8.145l-1 1a7.328 7.328 0 0 0 0 10.371 7.306 7.306 0 0 0 5.183 2.149 7.301 7.301 0 0 0 5.188-2.149l1.004-1v8.145a7.331 7.331 0 0 0 7.332 7.336 7.332 7.332 0 0 0 7.336-7.336v-22.813l10.293-10.296 6.468 6.468a6.138 6.138 0 0 0 4.34 1.797h7.05v16.656l-14.034 14.036a7.332 7.332 0 0 0 0 10.375 7.335 7.335 0 0 0 10.37 0l3.692-3.688c.336 4.902 4.414 8.777 9.406 8.777 4.989 0 9.07-3.875 9.407-8.777l3.687 3.688a7.308 7.308 0 0 0 5.188 2.148 7.314 7.314 0 0 0 5.187-2.148 7.34 7.34 0 0 0 0-10.375L138.66 480.94v-16.656h7.05a6.131 6.131 0 0 0 4.34-1.797l6.47-6.468 10.292 10.296v22.813a7.334 7.334 0 0 0 7.336 7.336 7.334 7.334 0 0 0 7.336-7.336v-8.145l1 1.004a7.33 7.33 0 0 0 5.188 2.149 7.324 7.324 0 0 0 5.187-2.149 7.34 7.34 0 0 0 0-10.375l-1-1h8.145a7.337 7.337 0 0 0 0-14.672h-22.816l-10.293-10.293 6.468-6.468a6.148 6.148 0 0 0 1.797-4.34v-7.05h16.656l14.036 14.034a7.308 7.308 0 0 0 5.187 2.149 7.299 7.299 0 0 0 5.184-2.149 7.328 7.328 0 0 0 0-10.37l-3.688-3.692c4.906-.336 8.778-4.418 8.778-9.407zm-106.024-33.66h4.508v12.477c-.313.14-.625.289-.934.445l-8.25-8.25zm-19.719 19.72 4.672-4.673 5.98 5.985 2.27 2.265c-.156.309-.305.617-.445.934H95.57zm4.672 32.558L95.57 432.3v-4.512h12.477c.14.313.289.625.445.934zm19.559 15.043h-4.512l-4.672-4.672 8.246-8.246c.309.152.621.3.934.441v12.477zm17.144-25.946a10.835 10.835 0 0 1-7.715 3.196 10.835 10.835 0 0 1-7.714-3.196 10.828 10.828 0 0 1-3.196-7.715c0-2.914 1.133-5.652 3.196-7.714a10.851 10.851 0 0 1 7.714-3.196c2.915 0 5.653 1.137 7.715 3.196a10.851 10.851 0 0 1 3.196 7.714c0 2.915-1.137 5.657-3.196 7.715zm6.227 25.946h-4.508v-12.477c.313-.14.625-.289.934-.441l8.246 8.246zm-1.219-56.758-2.36 2.36c-.308-.157-.616-.302-.929-.442v-12.48h4.508l4.672 4.671zm20.938 37.043-4.672 4.672-8.25-8.25c.156-.309.3-.621.441-.934h12.48zm0-23.375h-12.403.004-.082c-.14-.317-.285-.625-.441-.934l8.25-8.25 4.672 4.672zm0 0" data-original="url(#ae)" class=""></path><path fill="url(#af)" d="M111.941 363.844a5.25 5.25 0 0 1-5.246 5.25 5.248 5.248 0 1 1 5.246-5.25zm0 0" data-original="url(#af)"></path><path fill="url(#ag)" d="M157.043 363.844a5.248 5.248 0 1 1-10.496.004 5.248 5.248 0 0 1 10.496-.004zm0 0" data-original="url(#ag)" class=""></path><path fill="url(#ah)" d="M111.941 472.867a5.25 5.25 0 0 1-5.246 5.25 5.248 5.248 0 1 1 5.246-5.25zm0 0" data-original="url(#ah)"></path><path fill="url(#ai)" d="M157.043 472.867a5.248 5.248 0 1 1-10.496.004 5.248 5.248 0 0 1 10.496-.004zm0 0" data-original="url(#ai)"></path><path fill="url(#aj)" d="M189.004 395.805a5.248 5.248 0 1 1-10.496.004 5.248 5.248 0 0 1 10.496-.004zm0 0" data-original="url(#aj)"></path><path fill="url(#ak)" d="M189.004 440.906a5.248 5.248 0 1 1-10.496.004 5.248 5.248 0 0 1 10.496-.004zm0 0" data-original="url(#ak)"></path><path fill="url(#al)" d="M79.98 395.805a5.25 5.25 0 0 1-5.246 5.25 5.248 5.248 0 1 1 5.246-5.25zm0 0" data-original="url(#al)"></path><path fill="url(#am)" d="M79.98 440.906a5.25 5.25 0 0 1-5.246 5.25 5.248 5.248 0 1 1 5.246-5.25zm0 0" data-original="url(#am)"></path><path fill="url(#an)" d="M334.176 499.844c.594.633.984 1.074 1.164 1.304l-1.254-1.273-15.89-16.133a4.532 4.532 0 0 1-2.22-2.71 4.449 4.449 0 0 1-.183-1.278 4.493 4.493 0 0 1 3.445-4.375c-.11-.16-.21-.32-.3-.484l-7.532-7.528a4.271 4.271 0 0 1-1.074-.805 4.498 4.498 0 0 1 0-6.375l1.348-1.343-.153-.09c-.058-.05-.129-.102-.191-.152a5.924 5.924 0 0 1-.23-.18 2.716 2.716 0 0 1-.192-.172c-.07-.07-.14-.129-.2-.2-.062-.062-.12-.128-.179-.19a5.413 5.413 0 0 1-.183-.22c-.059-.07-.11-.14-.16-.21l-.16-.223c-.032-.05-.052-.09-.079-.14-.012-.012-.031-.02-.05-.032a4.742 4.742 0 0 1-.255-.168c-.07-.043-.128-.09-.199-.14-.07-.063-.152-.122-.23-.192a2.434 2.434 0 0 1-.18-.172c-.07-.058-.14-.129-.21-.199a2.716 2.716 0 0 1-.173-.191c-.058-.07-.129-.141-.18-.211a1.288 1.288 0 0 1-.16-.223 1.426 1.426 0 0 1-.16-.219c-.05-.082-.101-.16-.152-.242-.04-.07-.09-.148-.129-.23-.043-.078-.082-.172-.133-.262-.031-.078-.07-.149-.101-.23-.04-.102-.07-.192-.11-.29-.031-.082-.058-.152-.078-.234-.031-.11-.062-.207-.082-.32-.02-.07-.039-.149-.058-.219a3.498 3.498 0 0 1-.051-.371l-.032-.203a5.58 5.58 0 0 1-.03-.57c0-.204.01-.395.03-.583.012-.07.02-.132.032-.191.008-.133.027-.25.05-.371.02-.082.04-.152.06-.23.019-.102.05-.212.081-.325.02-.078.047-.148.078-.23.04-.098.07-.192.11-.29.03-.081.07-.152.101-.23.051-.09.09-.183.133-.262.04-.082.09-.16.129-.23.05-.082.101-.16.152-.242.047-.082.098-.153.16-.223.047-.07.098-.148.16-.219.051-.07.122-.14.18-.21.059-.06.11-.13.172-.192.07-.07.14-.14.211-.2.059-.062.121-.12.18-.171.078-.059.16-.129.23-.191.07-.051.13-.09.2-.141.081-.059.171-.121.253-.168.07-.043.13-.082.2-.121.09-.05.18-.102.28-.152.071-.04.13-.07.2-.102.102-.047.203-.09.305-.129.07-.02.14-.05.21-.07.098-.04.208-.07.31-.102.081-.02.152-.039.222-.058.11-.032.219-.051.332-.07.07-.012.148-.02.219-.032.12-.02.23-.039.34-.039.03-.012.05-.012.07-.012l-2.258-2.265a4.498 4.498 0 0 1 0-6.375 4.491 4.491 0 0 1 6.375 0l1.879 1.875 6.746 6.746h8.484l-6.488-6.805a3.062 3.062 0 0 1-.18-.602 3.285 3.285 0 0 1-.012-1.285 4.564 4.564 0 0 1-1.413-1.609l-7.528-7.527a4.507 4.507 0 0 1 2.105-8.492h5l-.612-.614a4.52 4.52 0 0 1 0-6.375 4.511 4.511 0 0 1 5.671-.582c.254.168.485.36.704.582l.625.613v-5.011a4.507 4.507 0 0 1 4.507-4.508 4.51 4.51 0 0 1 3.985 2.41l7.52 7.531c.64.328 1.195.82 1.597 1.403a3.618 3.618 0 0 1 1.305 0c.21.05.41.113.601.191.34.14.64.344.902.582l4.739 5.063c.344.148.644.34.914.582.082.078.172.168.25.257v-8.472l-1.102-1.102-1.89-1.879-1.875-1.886-3.766-3.766a4.513 4.513 0 0 1 0-6.375 4.513 4.513 0 0 1 6.375 0l2.27 2.27c0-.02.007-.051.007-.07.012-.122.024-.231.043-.34.008-.083.02-.153.028-.223.023-.11.05-.22.07-.332.023-.07.043-.149.062-.22a2.44 2.44 0 0 1 .102-.312c.02-.07.047-.14.078-.21.04-.102.082-.2.121-.301.032-.07.07-.14.102-.211.05-.09.097-.18.148-.27.04-.07.082-.14.121-.203.059-.09.11-.172.172-.262.051-.058.098-.129.149-.187.062-.082.12-.152.183-.235.059-.058.11-.117.168-.18.07-.07.133-.14.203-.21a2.42 2.42 0 0 1 .188-.168c.07-.07.14-.133.223-.192.07-.05.14-.113.21-.16.07-.05.153-.113.223-.164.078-.047.16-.09.238-.14.082-.047.153-.09.23-.13.09-.05.184-.09.263-.128.082-.043.16-.07.242-.113.09-.04.191-.07.281-.098.078-.031.16-.063.238-.082.102-.031.211-.059.325-.078.07-.024.14-.043.218-.063.121-.02.25-.039.371-.058.063 0 .133-.02.192-.02.191-.023.383-.031.582-.031.191 0 .39.008.582.031.062 0 .133.02.191.02.121.02.25.039.371.058.082.02.153.04.223.063.11.02.219.047.32.078.082.02.16.05.242.082.09.027.192.058.282.098.078.043.16.07.238.113.082.039.172.078.262.129.082.039.152.09.23.129.082.05.16.093.23.14.083.051.153.114.231.164.07.047.14.11.211.16.082.06.152.122.223.192.058.047.12.11.191.168.07.07.129.14.2.21.05.063.109.122.171.18.059.083.121.153.18.235.05.058.101.129.152.187.059.09.11.172.168.262a.16.16 0 0 1 .031.05c.04.02.09.052.133.083.078.047.149.098.219.16.07.05.152.098.223.16l.21.18c.06.062.13.11.188.172.07.07.14.14.203.21.059.06.121.122.172.18.059.082.129.16.188.243.05.058.09.12.14.191.032.047.07.09.102.14l1.344-1.347a4.513 4.513 0 0 1 6.375 0c.324.332.593.691.793 1.086l7.53 7.527a3.7 3.7 0 0 1 .481.301c.485-1.977 2.262-3.453 4.38-3.453 1.734 0 3.23.976 3.984 2.41 0 0 16.535 16.645 35.808 36.11-27.375 25.71-60.402 45.468-97.027 57.195zm0 0" data-original="url(#an)"></path><path fill="url(#ao)" d="M363.8 508.746a5.797 5.797 0 0 1-5.796-5.797v-38.277c0-3.203 2.594-5.797 5.797-5.797s5.797 2.594 5.797 5.797v38.277c0 3.2-2.594 5.797-5.797 5.797zm0 0" data-original="url(#ao)"></path><path fill="url(#ap)" d="M363.8 445.414a5.795 5.795 0 0 1-5.796-5.797V401.34c0-3.203 2.594-5.797 5.797-5.797s5.797 2.594 5.797 5.797v38.277a5.795 5.795 0 0 1-5.797 5.797zm0 0" data-original="url(#ap)"></path><path fill="url(#aq)" d="M351.273 457.941h-38.277a5.797 5.797 0 0 1 0-11.594h38.277a5.797 5.797 0 0 1 0 11.594zm0 0" data-original="url(#aq)"></path><path fill="url(#ar)" d="M414.605 457.941h-38.277a5.797 5.797 0 0 1 0-11.593h38.277a5.797 5.797 0 0 1 0 11.594zm0 0" data-original="url(#ar)"></path><path fill="url(#as)" d="M327.879 492.574a4.505 4.505 0 0 1-3.188-7.695l27.063-27.066a4.51 4.51 0 0 1 6.379 6.375l-27.067 27.066a4.5 4.5 0 0 1-3.187 1.32zm0 0" data-original="url(#as)"></path><path fill="url(#at)" d="M372.66 447.793a4.476 4.476 0 0 1-3.187-1.32 4.505 4.505 0 0 1 0-6.375l27.062-27.063a4.505 4.505 0 0 1 6.375 0 4.505 4.505 0 0 1 0 6.375l-27.062 27.067a4.502 4.502 0 0 1-3.188 1.316zm0 0" data-original="url(#at)"></path><path fill="url(#au)" d="M354.945 447.793a4.492 4.492 0 0 1-3.191-1.32L324.69 419.41a4.51 4.51 0 0 1 6.375-6.379l27.067 27.067a4.505 4.505 0 0 1 0 6.375 4.49 4.49 0 0 1-3.188 1.32zm0 0" data-original="url(#au)"></path><path fill="url(#av)" d="M399.723 492.574a4.5 4.5 0 0 1-3.188-1.32l-27.062-27.066a4.505 4.505 0 0 1 0-6.375 4.505 4.505 0 0 1 6.375 0l27.066 27.066a4.508 4.508 0 0 1-3.191 7.695zm0 0" data-original="url(#av)"></path><path fill="url(#aw)" d="M369.598 464.668v12.129l-11.594-11.594v-.535c0-3.2 2.598-5.793 5.797-5.793a5.794 5.794 0 0 1 5.797 5.793zm0 0" data-original="url(#aw)"></path><path fill="url(#ax)" d="M358.004 479.102h11.594v12.855l-11.594-11.59zm0 0" data-original="url(#ax)"></path><path fill="url(#ay)" d="m376.8 446.367 11.575 11.574h-12.047a5.797 5.797 0 0 1 0-11.593h.543zm0 0" data-original="url(#ay)"></path><path fill="url(#az)" d="M403.629 457.941h-13.41v-11.593h1.812zm0 0" data-original="url(#az)"></path><path fill="url(#aA)" d="M399.723 492.574a4.5 4.5 0 0 1-3.188-1.32l-27.062-27.066a4.505 4.505 0 0 1 0-6.375 4.505 4.505 0 0 1 6.375 0l27.066 27.066a4.508 4.508 0 0 1-3.191 7.695zm0 0" data-original="url(#aA)"></path><path fill="url(#aB)" d="M369.598 425.27v-23.93c0-.137-.004-.27-.016-.403l-5.781 5.782-5.781-5.782c-.008.133-.016.266-.016.403v12.336zm0 0" data-original="url(#aB)"></path><path fill="url(#aC)" d="m402.297 420.023-10.883 10.883-3.113-3.113a4.502 4.502 0 0 1-1.399-3.262v-1.867l9.02-9.016zm0 0" data-original="url(#aC)"></path><path fill="url(#aD)" d="m371.852 398.672-8.051 8.047-8.047-8.047a4.51 4.51 0 0 0-6.379 6.375l11.238 11.238a4.493 4.493 0 0 0 3.188 1.32 4.5 4.5 0 0 0 3.187-1.32l11.239-11.238a4.513 4.513 0 0 0 0-6.375 4.505 4.505 0 0 0-6.375 0zm0 0" data-original="url(#aD)"></path><path fill="url(#aE)" d="M366.988 488.004a4.505 4.505 0 0 0-6.375 0l-11.238 11.234a4.51 4.51 0 1 0 6.379 6.379l8.047-8.05 8.05 8.05a4.5 4.5 0 0 0 3.188 1.32 4.51 4.51 0 0 0 3.188-7.7zm0 0" data-original="url(#aE)"></path><path fill="url(#aF)" d="m409.223 452.145 8.05-8.051a4.505 4.505 0 0 0 0-6.375 4.505 4.505 0 0 0-6.375 0l-11.238 11.234a4.51 4.51 0 0 0 0 6.379l11.238 11.238a4.5 4.5 0 0 0 3.188 1.32 4.51 4.51 0 0 0 3.188-7.7zm0 0" data-original="url(#aF)"></path><path fill="url(#aG)" d="M327.941 455.332a4.51 4.51 0 0 0 0-6.379l-11.234-11.234a4.51 4.51 0 0 0-6.379 6.375l8.05 8.05-8.05 8.047a4.508 4.508 0 0 0 3.191 7.7 4.506 4.506 0 0 0 3.188-1.32zm0 0" data-original="url(#aG)"></path><path fill="url(#aH)" d="M391.41 429.043h15.895a4.51 4.51 0 0 0 0-9.02h-11.383v-11.382a4.51 4.51 0 0 0-9.02 0v15.894a4.51 4.51 0 0 0 4.508 4.508zm0 0" data-original="url(#aH)"></path><path fill="url(#aI)" d="M336.191 475.246h-15.894a4.51 4.51 0 0 0-4.508 4.508 4.51 4.51 0 0 0 4.508 4.508h11.383v11.383a4.51 4.51 0 1 0 9.02 0v-15.891a4.507 4.507 0 0 0-4.509-4.508zm0 0" data-original="url(#aI)"></path><path fill="url(#aJ)" d="M407.305 475.246H391.41a4.51 4.51 0 0 0-4.508 4.508v15.89a4.51 4.51 0 1 0 9.02 0v-11.382H407.3a4.507 4.507 0 1 0 .004-9.016zm0 0" data-original="url(#aJ)"></path><path fill="url(#aK)" d="M336.191 404.133a4.507 4.507 0 0 0-4.507 4.508v11.382H320.3a4.507 4.507 0 0 0-4.508 4.508 4.508 4.508 0 0 0 4.508 4.512h15.89a4.51 4.51 0 0 0 4.508-4.512v-15.89a4.51 4.51 0 0 0-4.508-4.508zm0 0" data-original="url(#aK)"></path><path fill="url(#aL)" d="M369.598 423.91v15.707c0 .121-.004.242-.008.363a5.8 5.8 0 0 1-.715 2.446l-10.871-10.871v-7.645zm0 0" data-original="url(#aL)"></path><path fill="url(#aM)" d="M353.992 457.27a5.83 5.83 0 0 1-2.715.671H335.57v-11.597h7.496zm0 0" data-original="url(#aM)"></path><path fill="url(#aN)" d="m386.953 435.371-5.336 5.328-5.77 5.774a4.49 4.49 0 0 1-3.187 1.32 4.508 4.508 0 0 1-3.191-7.695l11.105-11.106zm0 0" data-original="url(#aN)"></path><path fill="url(#aO)" d="M359.45 443.445a4.51 4.51 0 0 1-4.344 4.348h-.165a4.506 4.506 0 0 1-3.187-1.32l-.117-.118-5.653-5.656-5.332-5.328 6.375-6.379 5.332 5.336 5.657 5.652.117.118a4.49 4.49 0 0 1 1.316 3.347zm0 0" data-original="url(#aO)"></path><path fill="url(#aP)" d="M363.8 466.39c-3.804 0-7.382-1.48-10.073-4.171a14.157 14.157 0 0 1-4.176-10.074 14.16 14.16 0 0 1 4.176-10.079 14.153 14.153 0 0 1 10.074-4.171 14.17 14.17 0 0 1 10.074 4.171 14.16 14.16 0 0 1 4.176 10.079c0 3.804-1.485 7.382-4.176 10.074s-6.27 4.172-10.074 4.172zm0-20.952c-1.792 0-3.476.699-4.741 1.964s-1.965 2.95-1.965 4.743c0 1.789.699 3.472 1.965 4.742 1.265 1.265 2.949 1.965 4.742 1.965s3.476-.7 4.742-1.965a6.676 6.676 0 0 0 1.965-4.742c0-1.793-.7-3.477-1.965-4.743s-2.95-1.964-4.742-1.964zm0 0" data-original="url(#aP)"></path><path fill="url(#aQ)" d="M373.934 480.375h-20.266c-1 0-1.957-.398-2.664-1.105l-14.328-14.329a3.767 3.767 0 0 1-1.106-2.664v-20.265c0-1 .399-1.961 1.106-2.668l14.328-14.328a3.763 3.763 0 0 1 2.664-1.102h20.266c1 0 1.96.395 2.668 1.102l14.324 14.328a3.766 3.766 0 0 1 1.105 2.668v20.265c0 1-.394 1.957-1.105 2.664l-14.324 14.329a3.783 3.783 0 0 1-2.668 1.105zm-18.704-7.543h17.141l12.121-12.121v-17.137l-12.12-12.12H355.23l-12.117 12.12v17.14zm0 0" data-original="url(#aQ)"></path><path fill="url(#aR)" d="M353.176 418.637a3.227 3.227 0 0 1-6.453 0 3.228 3.228 0 0 1 6.453 0zm0 0" data-original="url(#aR)"></path><path fill="url(#aS)" d="M380.895 418.637a3.224 3.224 0 1 1-6.45 0 3.224 3.224 0 1 1 6.45 0zm0 0" data-original="url(#aS)"></path><path fill="url(#aT)" d="M353.172 485.648a3.224 3.224 0 1 1-3.223-3.222 3.22 3.22 0 0 1 3.223 3.222zm0 0" data-original="url(#aT)"></path><path fill="url(#aU)" d="M380.895 485.648a3.224 3.224 0 1 1-6.45 0 3.224 3.224 0 1 1 6.45 0zm0 0" data-original="url(#aU)"></path><path fill="url(#aV)" d="M400.543 438.281a3.227 3.227 0 0 1-6.453 0 3.227 3.227 0 0 1 6.453 0zm0 0" data-original="url(#aV)"></path><path fill="url(#aW)" d="M400.543 466.004a3.228 3.228 0 0 1-6.453 0 3.227 3.227 0 0 1 6.453 0zm0 0" data-original="url(#aW)"></path><path fill="url(#aX)" d="M333.531 438.281a3.227 3.227 0 0 1-6.453 0 3.227 3.227 0 0 1 6.453 0zm0 0" data-original="url(#aX)"></path><path fill="url(#aY)" d="M333.531 466.004a3.227 3.227 0 0 1-6.453 0 3.227 3.227 0 0 1 6.453 0zm0 0" data-original="url(#aY)"></path><path fill="url(#aZ)" d="M420.402 452.145a5.797 5.797 0 0 0-5.394-5.782l2.265-2.27a4.505 4.505 0 0 0 0-6.374 4.505 4.505 0 0 0-6.375 0l-8.628 8.629H392.03v-4.336c0-1-.394-1.961-1.105-2.668l-3.977-3.973 6.328-6.328h14.024a4.508 4.508 0 1 0 0-9.016h-5.004l.613-.617a4.505 4.505 0 0 0 0-6.375 4.505 4.505 0 0 0-6.375 0l-.613.613v-5.007a4.51 4.51 0 0 0-9.02 0v14.027l-6.328 6.324-3.972-3.976a3.772 3.772 0 0 0-2.668-1.102h-4.336v-10.238l8.629-8.63a4.505 4.505 0 0 0 0-6.374 4.505 4.505 0 0 0-6.375 0l-2.266 2.266a5.797 5.797 0 0 0-11.566 0l-2.266-2.266a4.505 4.505 0 0 0-6.375 0 4.505 4.505 0 0 0 0 6.375l8.629 8.629v10.238h-4.336c-1 0-1.961.395-2.668 1.102l-3.977 3.976-6.328-6.324v-14.027a4.507 4.507 0 0 0-4.508-4.508 4.507 4.507 0 0 0-4.507 4.508v5.007l-.618-.613a4.505 4.505 0 0 0-6.375 0 4.505 4.505 0 0 0 0 6.375l.618.617H320.3a4.507 4.507 0 1 0 0 9.016h14.023l6.328 6.328-3.976 3.977a3.767 3.767 0 0 0-1.106 2.664v4.336h-10.234l-8.629-8.63a4.505 4.505 0 0 0-6.375 0 4.505 4.505 0 0 0 0 6.376l2.266 2.27a5.794 5.794 0 0 0 0 11.562l-2.266 2.27a4.505 4.505 0 0 0 3.188 7.695 4.5 4.5 0 0 0 3.187-1.32l8.629-8.63h10.234v4.336c0 1 .399 1.961 1.106 2.668l3.976 3.973-6.328 6.328h-14.023a4.51 4.51 0 0 0 0 9.02h5.008l-.618.613a4.51 4.51 0 0 0 6.375 6.379l.618-.617v5.007a4.51 4.51 0 0 0 4.507 4.508 4.51 4.51 0 0 0 4.508-4.508v-14.023l6.328-6.328 3.977 3.976a3.776 3.776 0 0 0 2.668 1.106h4.336v10.234l-8.63 8.63a4.505 4.505 0 0 0 0 6.374 4.505 4.505 0 0 0 6.376 0l2.266-2.265a5.797 5.797 0 0 0 11.566 0l2.266 2.265a4.483 4.483 0 0 0 3.187 1.32 4.483 4.483 0 0 0 3.188-1.32 4.505 4.505 0 0 0 0-6.375l-8.625-8.629v-10.238h4.332c1 0 1.96-.395 2.668-1.105l3.976-3.977 6.324 6.328v14.024a4.51 4.51 0 1 0 9.02 0v-5.004l.613.613a4.492 4.492 0 0 0 3.192 1.32 4.506 4.506 0 0 0 3.187-1.32 4.513 4.513 0 0 0 0-6.375l-.617-.617h5.008a4.51 4.51 0 0 0 4.507-4.508 4.51 4.51 0 0 0-4.507-4.508H393.28l-6.328-6.328 3.977-3.977a3.767 3.767 0 0 0 1.105-2.664v-4.336h10.235l8.628 8.63a4.5 4.5 0 0 0 3.188 1.32 4.508 4.508 0 0 0 3.191-7.7l-2.27-2.265a5.797 5.797 0 0 0 5.395-5.781zm-65.172-20.692h2.774v7.672c-.195.086-.383.176-.574.27l-5.07-5.07zm-12.117 12.121 2.871-2.87 5.07 5.07a11 11 0 0 0-.273.574h-7.672v-2.774zm2.871 20.012-2.87-2.871v-2.774h7.667a11 11 0 0 0 .274.575zm12.02 9.246h-2.774l-2.87-2.871 5.07-5.07c.191.093.379.187.574.273zm10.539-15.945c-1.266 1.265-2.95 1.965-4.742 1.965s-3.477-.7-4.742-1.965a6.676 6.676 0 0 1-1.965-4.742c0-1.793.699-3.477 1.965-4.743s2.949-1.965 4.742-1.965 3.476.7 4.742 1.965 1.965 2.95 1.965 4.743c0 1.789-.7 3.472-1.965 4.742zm3.828 15.945h-2.773v-7.668c.195-.09.386-.18.574-.273l5.07 5.07zm-.75-34.887-1.45 1.45a12.909 12.909 0 0 0-.573-.27v-7.672h2.773l2.871 2.871zm12.871 22.77-2.875 2.87-5.07-5.07c.098-.187.187-.378.273-.574h7.672zm0-14.367h-7.625.004-.05a12.908 12.908 0 0 0-.27-.575l5.07-5.07 2.871 2.871zm0 0" data-original="url(#aZ)"></path><path fill="url(#ba)" d="M353.176 418.637a3.227 3.227 0 0 1-6.453 0 3.228 3.228 0 0 1 6.453 0zm0 0" data-original="url(#ba)"></path><path fill="url(#bb)" d="M380.895 418.637a3.224 3.224 0 1 1-6.45 0 3.224 3.224 0 1 1 6.45 0zm0 0" data-original="url(#bb)"></path><path fill="url(#bc)" d="M353.172 485.648a3.224 3.224 0 1 1-3.223-3.222 3.22 3.22 0 0 1 3.223 3.222zm0 0" data-original="url(#bc)"></path><path fill="url(#bd)" d="M380.895 485.648a3.224 3.224 0 1 1-6.45 0 3.224 3.224 0 1 1 6.45 0zm0 0" data-original="url(#bd)"></path><path fill="url(#be)" d="M400.543 438.281a3.227 3.227 0 0 1-6.453 0 3.227 3.227 0 0 1 6.453 0zm0 0" data-original="url(#be)"></path><path fill="url(#bf)" d="M400.543 466.004a3.228 3.228 0 0 1-6.453 0 3.227 3.227 0 0 1 6.453 0zm0 0" data-original="url(#bf)"></path><path fill="url(#bg)" d="M333.531 438.281a3.227 3.227 0 0 1-6.453 0 3.227 3.227 0 0 1 6.453 0zm0 0" data-original="url(#bg)"></path><path fill="url(#bh)" d="M333.531 466.004a3.227 3.227 0 0 1-6.453 0 3.227 3.227 0 0 1 6.453 0zm0 0" data-original="url(#bh)"></path></g></svg>