<svg xmlns="http://www.w3.org/2000/svg" version="1.1" xmlns:xlink="http://www.w3.org/1999/xlink" xmlns:svgjs="http://svgjs.com/svgjs" width="512" height="512" x="0" y="0" viewBox="0 0 512 512" style="enable-background:new 0 0 512 512" xml:space="preserve"><g><path fill="#ffc433" d="M430.047 222.491c-19.685 13.903-43.657 22.138-69.545 22.341-66.957.524-122.405-53.648-123.376-120.6C236.134 55.794 291.315.004 359.524.004c2.253 0 4.492.061 6.716.181 6.886.373 8.347 9.888 1.908 12.357-40.115 15.384-68.225 54.997-66.43 100.924 2.162 55.353 48.19 99.496 103.585 99.468a104.052 104.052 0 0 0 19.824-1.904c6.699-1.303 10.494 7.524 4.92 11.461z" data-original="#ffc433"></path><path fill="#ffb322" d="M431.791 220.698c-24.686 7.528-52.79 7.181-81.475-3.876-27.839-10.731-50.158-32.439-61.44-60.063C261.762 90.391 292.844 26.329 345.95.755c4.458-.5 8.987-.755 13.577-.755 2.254 0 4.488.061 6.712.184 6.886.377 8.344 9.885 1.907 12.353-40.11 15.393-68.224 55.004-66.429 100.928 2.162 55.351 48.189 99.5 103.581 99.47a104.86 104.86 0 0 0 19.831-1.908c5.805-1.122 9.427 5.366 6.662 9.671z" data-original="#ffb322"></path><path fill="#9d9d9d" d="M276.786 367.795c48.852 0 89.228-39.25 89.294-88.102.059-43.545-31.436-79.721-72.884-86.99-2.573-.451-4.589-2.434-5.043-5.007-9.638-54.677-57.566-96.151-115.106-95.721-62.748.47-114.167 51.495-115.096 114.238-.085 5.743.248 11.392.97 16.919.397 3.037-1.562 5.887-4.519 6.683-29.68 7.996-51.585 34.948-51.896 67.08-.378 38.993 32.226 70.9 71.221 70.9z" data-original="#9d9d9d"></path><path fill="#848484" d="M366.076 279.696c-.041 30.338-15.619 56.979-39.133 72.8 13.027-15.281 20.924-35.006 20.954-56.591.061-43.538-31.429-79.721-72.876-86.984-2.581-.459-4.59-2.438-5.049-5.009-9.64-54.677-57.564-96.154-115.108-95.726-24.809.184-47.831 8.273-66.672 21.86 21.085-23.156 51.35-37.815 84.85-38.07 57.544-.428 105.468 41.039 115.108 95.716.459 2.581 2.469 4.56 5.049 5.009 41.448 7.275 72.939 43.447 72.877 86.995z" data-original="#848484"></path><path fill="#cfcfcf" d="M443.474 385.203c35.977 0 66.206-29.434 66.018-65.41-.165-31.533-22.768-57.739-52.654-63.511-2.543-.491-4.53-2.442-5.013-4.987-7.69-40.531-43.97-70.941-87.073-69.447-44.518 1.543-80.731 37.62-82.437 82.132-.17 4.446 0 8.82.485 13.098.348 3.066-1.593 5.879-4.549 6.765-21.575 6.469-37.234 26.62-36.875 50.384.429 28.41 24.143 50.974 52.557 50.974h149.541z" data-original="#cfcfcf"></path><path fill="#ffc433" d="M189.304 221.587h-48.109a9.938 9.938 0 0 0-9.012 5.749L76.718 346.664c-9.157 19.7 5.227 42.247 26.951 42.247h35.066l-30.009 115.521c-.731 2.816 3.097 4.428 4.601 1.937l92.705-153.605c6.943-11.504-1.341-26.18-14.778-26.18h-35.112l42.177-90.876c3.057-6.586-1.753-14.121-9.015-14.121z" data-original="#ffc433"></path><g fill="#ffb322"><path d="M173.169 234.017c2.152-4.651.439-9.761-3.284-12.433h19.419c7.262 0 12.076 7.537 9.016 14.126l-42.179 90.874-20.29.001c-2.672 0-4.442-2.774-3.315-5.197zM206.031 352.767 113.33 506.369c-1.509 2.489-5.334.877-4.6-1.938l14.646-56.402 57.606-95.435c6.262-10.373.286-23.305-10.719-26.008h20.99c13.432-.001 21.724 14.676 14.778 26.181z" fill="#ffb322" data-original="#ffb322"></path></g><path fill="#ffc433" d="M472.012 82.276a7.661 7.661 0 0 1-6.584-11.564l8.866-14.97h-11.142a7.66 7.66 0 0 1-6.66-11.443l16.981-29.889a7.66 7.66 0 0 1 13.32 7.567l-10.48 18.446h11.421a7.66 7.66 0 0 1 6.59 11.564L478.609 78.52a7.658 7.658 0 0 1-6.597 3.756zM35.297 512a7.66 7.66 0 0 1-6.583-11.564l21.075-35.585H19.55a7.659 7.659 0 0 1-6.66-11.443l30.173-53.109a7.66 7.66 0 1 1 13.319 7.567L32.71 449.532h30.517a7.66 7.66 0 0 1 6.591 11.563l-27.924 47.148A7.652 7.652 0 0 1 35.297 512zM362.914 507.295a7.653 7.653 0 0 1-6.597-3.758l-27.982-47.245a7.659 7.659 0 0 1 6.59-11.563h17.953l-14.992-26.388a7.66 7.66 0 0 1 13.32-7.567l21.493 37.831a7.661 7.661 0 0 1-6.66 11.443h-17.676l21.134 35.683a7.661 7.661 0 0 1-6.583 11.564z" data-original="#ffc433"></path></g></svg>