<svg xmlns="http://www.w3.org/2000/svg" version="1.1" xmlns:xlink="http://www.w3.org/1999/xlink" xmlns:svgjs="http://svgjs.com/svgjs" width="512" height="512" x="0" y="0" viewBox="0 0 512 512" style="enable-background:new 0 0 512 512" xml:space="preserve" class=""><g><path fill="#84abc1" d="M38.684 40.832c-37.047 93.234-14.407 226.078 98.8 288.074C250.687 390.902 114.84 438.254 114.84 512h39.11c0-76.613 190.585-62.242 190.585-170.723 0-79.941-105.512-200.195 62.875-291.21" data-original="#84abc1"></path><path fill="#4d87a1" d="M415.352 40.832c0-18.289-84.32-33.113-188.332-33.113-104.016 0-188.336 14.824-188.336 33.113 0 18.29 84.32 33.113 188.336 33.113 104.011 0 188.332-14.824 188.332-33.113zm0 0" data-original="#4d87a1"></path><path d="M227.02 81.664c-50.743 0-98.512-3.484-134.508-9.816-55.164-9.7-61.547-22.348-61.547-31.016s6.383-21.316 61.547-31.016C128.508 3.484 176.277 0 227.02 0c50.738 0 98.507 3.484 134.507 9.816 55.164 9.7 61.543 22.348 61.543 31.016 0 12.102-14.707 18.559-25.765 22.36-13.493 4.636-33.004 8.718-56.434 11.804-4.23.563-8.101-2.414-8.66-6.64a7.721 7.721 0 0 1 6.644-8.665c49.665-6.543 65.805-15.359 68.532-18.855-2.367-2.969-15.223-10.418-53.598-16.676-34.516-5.625-79.535-8.723-126.77-8.723s-92.257 3.098-126.769 8.727c-38.355 6.25-51.219 13.695-53.602 16.668 2.383 2.973 15.247 10.418 53.602 16.672 34.512 5.625 79.535 8.723 126.77 8.723 28.78 0 56.375-1.118 82.011-3.325a7.714 7.714 0 0 1 8.352 7.028 7.714 7.714 0 0 1-7.028 8.351c-26.078 2.246-54.113 3.383-83.335 3.383zM256.02 137.09c-23.274 0-48.73-1.18-74.954-3.52-46.91-4.187-90.777-11.61-123.515-20.898-38.356-10.883-55.649-22.317-54.43-35.98a7.72 7.72 0 0 1 15.395 1.121c.457.933 5.918 9.93 47.394 21.156 31.367 8.492 72.75 15.316 116.531 19.226 43.778 3.907 85.72 4.52 118.094 1.72 42.809-3.704 49.777-11.59 50.395-12.427.5-4.117 4.187-7.133 8.347-6.754a7.718 7.718 0 0 1 7 8.375c-1.218 13.664-20.265 21.856-59.941 25.774-14.938 1.472-31.95 2.207-50.316 2.207zM112.766 286.75a8.04 8.04 0 0 1-.532-.016c-54.39-3.71-82.484-14.187-83.504-31.132a7.718 7.718 0 0 1 7.239-8.168 7.708 7.708 0 0 1 8.168 7.238c.707 2.527 14.535 12.933 69.148 16.66a7.723 7.723 0 0 1 7.176 8.227 7.722 7.722 0 0 1-7.695 7.191zM150.05 287.953c-2.171 0-4.331-.008-6.48-.031a7.715 7.715 0 0 1-7.636-7.797c.043-4.262 3.504-7.652 7.796-7.64 15.192.16 31.043-.255 47.122-1.223 39.085-2.36 75.89-7.797 103.625-15.305 37.105-10.05 40.015-18.781 40.027-18.867-.254-4.254 2.984-7.883 7.242-8.137 4.246-.258 7.91 3.012 8.168 7.27.809 13.394-15.219 24.507-48.992 33.968-29.012 8.13-67.774 13.98-109.14 16.477-14.169.855-28.177 1.285-41.731 1.285zm0 0" fill="#5a6275" data-original="#000000" class=""></path><path d="M231 244.563c-19.86 0-41.309-.985-63.34-2.95-42.82-3.824-82.844-10.914-112.695-19.96-34.68-10.516-50.957-22.137-49.762-35.54.379-4.246 4.125-7.39 8.375-7a7.718 7.718 0 0 1 7.008 8.293c.5 2.305 9.133 10.813 41.77 20.34 28.554 8.332 66.437 14.899 106.68 18.492 40.237 3.59 78.687 3.836 108.265.696 33.808-3.594 43.808-10.438 44.707-12.618a7.72 7.72 0 0 1 15.371 1.453c-1.195 13.403-19.277 21.958-55.27 26.16-15.043 1.755-32.367 2.633-51.109 2.633zM162.16 345.367c-10.887 0-21.066-.515-30.258-1.555-29.336-3.32-45.148-11.558-46.992-24.488a7.718 7.718 0 0 1 6.55-8.734c4.224-.606 8.13 2.332 8.731 6.55.23 1.622 6.586 8.294 33.446 11.333 24.054 2.722 55.492 1.625 88.523-3.09s63.52-12.457 85.852-21.801c24.937-10.437 29.172-18.617 28.937-20.238a7.723 7.723 0 0 1 6.551-8.735c4.223-.605 8.129 2.332 8.734 6.551 1.844 12.93-11.027 25.266-38.265 36.66-23.504 9.836-55.336 17.95-89.63 22.844-21.839 3.117-43.089 4.703-62.179 4.703zM242.27 396.64c-47.625 0-91.243-11.015-92.704-34.562-.261-4.254 2.973-7.918 7.227-8.18 4.242-.27 7.918 2.97 8.184 7.227.53 8.602 34.886 23.285 95.953 19.496 61.066-3.785 93.343-22.594 92.808-31.2a7.719 7.719 0 0 1 7.23-8.179c4.235-.27 7.915 2.969 8.18 7.227 1.657 26.754-52.707 44.176-107.261 47.558-6.551.407-13.121.614-19.617.614zM245.27 447.703c-4.083 0-8.23-.133-12.415-.406-21.718-1.422-42.023-6.422-57.164-14.082-17.168-8.684-26.187-20.133-25.394-32.242a7.725 7.725 0 0 1 8.207-7.2 7.723 7.723 0 0 1 7.2 8.207c-.349 5.305 6.148 11.993 16.956 17.461 13.328 6.739 31.512 11.16 51.207 12.45 19.692 1.293 38.297-.723 52.39-5.668 11.427-4.012 18.74-9.797 19.087-15.102.281-4.254 3.957-7.484 8.207-7.195a7.717 7.717 0 0 1 7.199 8.203c-.793 12.11-11.227 22.285-29.383 28.66-12.926 4.535-28.965 6.914-46.097 6.914zM210.16 483.172c-10.324 0-23.14-2.129-36.164-6.008-13.25-3.95-25.324-9.297-34-15.059-14.258-9.472-15.398-17.667-13.848-22.875a7.713 7.713 0 0 1 9.602-5.19c3.77 1.12 6.04 4.866 5.414 8.647 1.816 3.625 14.234 12.825 37.238 19.68 23.008 6.856 38.438 5.953 41.938 3.914 1.547-3.508 5.496-5.402 9.265-4.277a7.717 7.717 0 0 1 5.192 9.601c-1.55 5.211-6.992 11.442-24.11 11.563-.171 0-.351.004-.527.004zm-69.215-39.54v.005-.004zM151.629 510.035a92.57 92.57 0 0 1-9.324-.48c-10.532-1.075-20.368-3.856-27.7-7.832-12.648-6.856-13.816-14.95-13.386-19.164a7.723 7.723 0 0 1 8.46-6.899 7.72 7.72 0 0 1 6.919 8.192c1.011 2.363 10.191 8.601 27.273 10.343 17.082 1.739 27.332-2.52 28.797-4.629a7.717 7.717 0 0 1 15.324 1.836c-.43 4.215-3.207 11.91-16.976 16.07-5.59 1.692-12.27 2.563-19.387 2.563zm-35.05-25.914v.004zM151.555 185.125c-35.88 0-69.114-2.324-95.434-6.75C18.231 172.008.398 162.668.004 148.992a7.714 7.714 0 0 1 7.492-7.937c4.203-.11 7.719 3.14 7.93 7.316.43.746 6.105 9 46.984 15.383 30.84 4.816 71.098 6.797 113.363 5.578 42.262-1.219 82.34-5.512 112.852-12.094 40.441-8.726 45.637-17.293 46.02-18.062a7.717 7.717 0 0 1 7.496-7.762 7.717 7.717 0 0 1 7.937 7.492c.395 13.68-16.871 24.028-54.332 32.567-31.898 7.27-74.348 11.988-119.531 13.293-8.32.238-16.559.359-24.66.359zm183.09-45.773h.011zm0 0" fill="#5a6275" data-original="#000000" class=""></path></g></svg>