<svg xmlns="http://www.w3.org/2000/svg" version="1.1" xmlns:xlink="http://www.w3.org/1999/xlink" xmlns:svgjs="http://svgjs.com/svgjs" width="512" height="512" x="0" y="0" viewBox="0 0 512 512" style="enable-background:new 0 0 512 512" xml:space="preserve" class=""><g><linearGradient id="a" x1=".003" x2="511.997" y1="256" y2="256" gradientUnits="userSpaceOnUse"><stop stop-opacity="1" stop-color="#feaaa4" offset="0.007722007722007722"></stop><stop stop-opacity="1" stop-color="#fea8a8" offset="0.10424710424710425"></stop><stop stop-opacity="1" stop-color="#ffb598" offset="0.3359073359073359"></stop><stop stop-opacity="1" stop-color="#ffc682" offset="0.5444015444015444"></stop><stop stop-opacity="1" stop-color="#ffce76" offset="0.7374517374517374"></stop><stop stop-opacity="1" stop-color="#fed173" offset="0.9034749034749034"></stop><stop stop-opacity="1" stop-color="#fee05c" offset="1"></stop></linearGradient><path fill="url(#a)" d="M256 0C114.8 0 0 114.8 0 256s114.8 256 256 256 256-114.8 256-256S397.2 0 256 0zm0 480C132.5 480 32 379.5 32 256S132.5 32 256 32s224 100.5 224 224-100.5 224-224 224zm110.2-228.6c5 26.4.4 53.7-13.1 77-15 26-39.2 44.5-68.1 52.3-9.7 2.6-19.5 3.9-29.2 3.9-19.4 0-38.6-5.1-55.9-15.1-53.5-30.9-72-99.7-41.1-153.2 24.7-42.7 73.3-63 119.2-53.9l-6.1-11.2c-4.2-7.8-1.3-17.5 6.4-21.7 7.8-4.2 17.5-1.3 21.7 6.4l24.9 45.9c2 3.7 2.5 8.1 1.3 12.2s-4 7.5-7.7 9.5l-46 24.9c-2.4 1.3-5 1.9-7.6 1.9-5.7 0-11.2-3-14.1-8.4-4.2-7.8-1.3-17.5 6.4-21.7l12.7-6.9c-32.3-5.7-66.2 8.8-83.5 38.8-22.1 38.3-8.9 87.4 29.4 109.5 18.5 10.7 40.1 13.5 60.8 8s38-18.8 48.7-37.4c9.6-16.7 12.9-36.2 9.3-55-1.7-8.7 4-17.1 12.7-18.7 8.9-1.5 17.2 4.2 18.9 12.9z" data-original="url(#a)" class=""></path></g></svg>